<svg xmlns="http://www.w3.org/2000/svg" xmlns:xlink="http://www.w3.org/1999/xlink" width="182" height="100" viewBox="0 0 182 100">
  <defs>
    <clipPath id="clip-Artboard_28">
      <rect width="182" height="100"/>
    </clipPath>
  </defs>
  <g id="Artboard_28" data-name="Artboard – 28" clip-path="url(#clip-Artboard_28)">
    <text id="_5." data-name="5." transform="translate(51 29)" fill="#51514f" font-size="30" font-family="LibreFranklin-SemiBold, Libre Franklin" font-weight="600"><tspan x="-13.59" y="0">5.</tspan></text>
    <path id="Significon-Comment" d="M38.25,63.5h-18a2.251,2.251,0,0,1,0-4.5h18a2.251,2.251,0,0,1,0,4.5ZM49.5,61.25A2.251,2.251,0,1,1,47.25,59,2.253,2.253,0,0,1,49.5,61.25Zm-22.5-9A2.251,2.251,0,0,1,29.25,50h22.5a2.251,2.251,0,1,1,0,4.5H29.25A2.25,2.25,0,0,1,27,52.248ZM63,81.5H42.75A6.72,6.72,0,0,0,38.7,82.844L24.5,93.5c-.029.022-.046.032-.079.058A6.748,6.748,0,0,1,13.5,88.249v-4.5a2.252,2.252,0,0,0-2.251-2.25H9a9,9,0,0,1-9-9V43.249a2.249,2.249,0,1,1,4.5,0V71.375A5.628,5.628,0,0,0,10.126,77h2.248A5.625,5.625,0,0,1,18,82.624v5.625a2.249,2.249,0,0,0,2.248,2.25,2.225,2.225,0,0,0,1.282-.4l.009,0L35.86,79.352s0,0,0,0A11.21,11.21,0,0,1,42.75,77H61.875A5.625,5.625,0,0,0,67.5,71.375V42.123A5.625,5.625,0,0,0,61.875,36.5H20.248a2.249,2.249,0,0,1,0-4.5H63a9,9,0,0,1,9,9V72.5a9,9,0,0,1-9,9Zm-51.75-45a2.249,2.249,0,1,1,2.25-2.25,2.25,2.25,0,0,1-2.25,2.25Z" transform="translate(72.531 -13.438)" fill="#216e93" fill-rule="evenodd"/>
  </g>
</svg>
