<svg xmlns="http://www.w3.org/2000/svg" xmlns:xlink="http://www.w3.org/1999/xlink" width="150" height="150" viewBox="0 0 150 150">
  <defs>
    <clipPath id="clip-Artboard_30">
      <rect width="150" height="150"/>
    </clipPath>
  </defs>
  <g id="Artboard_30" data-name="Artboard – 30" clip-path="url(#clip-Artboard_30)">
    <path id="Path_1922" data-name="Path 1922" d="M323.769,161.247a14.584,14.584,0,0,0-28.489.582h-7.216c-.031-.14-.057-.28-.091-.42a23.352,23.352,0,0,0-22.67-17.857,23.568,23.568,0,0,0-6.508.919l-2.4-5.634a14.651,14.651,0,1,0-4.5,2.185l2.273,5.335a23.337,23.337,0,0,0-6.71,35.6l-5.969,6.572a14.572,14.572,0,1,0,4.242,2.765l5.341-5.88a23.63,23.63,0,0,0,2.054,1.415,23.35,23.35,0,0,0,35.509-20h6.523c.065.428.142.856.245,1.282a14.594,14.594,0,0,0,28.37-6.864Zm-80.921-26.061a9.59,9.59,0,1,1,4.987,1.407A9.534,9.534,0,0,1,242.848,135.186Zm1.092,71.754a9.6,9.6,0,1,1-3.193-13.188l.006,0a9.592,9.592,0,0,1,3.187,13.184Zm37-30.483a18.346,18.346,0,1,1,2.171-13.872A18.238,18.238,0,0,1,280.942,176.457Zm36.831-6.78a9.594,9.594,0,1,1,1.136-7.255A9.537,9.537,0,0,1,317.773,169.677Z" transform="translate(-198.151 -89.401)" fill="#216e93"/>
    <g id="image" transform="translate(-340 -386)">
      <rect id="img_bg" width="150" height="150" transform="translate(340 386)" fill="none" stroke="#95989a" stroke-linejoin="round" stroke-width="1"/>
    </g>
  </g>
</svg>
