<svg xmlns="http://www.w3.org/2000/svg" xmlns:xlink="http://www.w3.org/1999/xlink" width="150" height="150" viewBox="0 0 150 150">
  <defs>
    <clipPath id="clip-Artboard_31">
      <rect width="150" height="150"/>
    </clipPath>
  </defs>
  <g id="Artboard_31" data-name="Artboard – 31" clip-path="url(#clip-Artboard_31)">
    <path id="Path_1923" data-name="Path 1923" d="M433.691,152.566a14.188,14.188,0,1,0,6.4,8.774A14.167,14.167,0,0,0,433.691,152.566Zm.452,16.9a9.191,9.191,0,1,1,1.087-6.948A9.137,9.137,0,0,1,434.143,169.464Zm43.394-4.9c0-6.318-3.857-12.064-10.4-16.63a32.028,32.028,0,0,0,.513-5.463c0-5.578-1.74-10.246-5.032-13.5s-7.992-4.96-13.617-4.96a33.119,33.119,0,0,0-5.548.512c-4.615-6.467-10.423-10.28-16.81-10.28s-12.193,3.813-16.809,10.28a33.1,33.1,0,0,0-5.547-.512c-5.626,0-10.335,1.715-13.618,4.96s-5.032,7.921-5.032,13.5a32.03,32.03,0,0,0,.513,5.464c-6.541,4.566-10.4,10.312-10.4,16.63s3.857,12.065,10.4,16.631a32.03,32.03,0,0,0-.513,5.464c0,5.578,1.74,10.246,5.032,13.5s7.992,4.96,13.617,4.96a33.22,33.22,0,0,0,5.548-.511c4.615,6.466,10.423,10.28,16.809,10.28s12.2-3.814,16.81-10.28a33.22,33.22,0,0,0,5.548.511c5.625,0,10.334-1.715,13.617-4.96s5.032-7.921,5.032-13.5a32.028,32.028,0,0,0-.513-5.463C473.68,176.626,477.537,170.88,477.537,164.561ZM449,129.008c4.343,0,7.742,1.183,10.1,3.517s3.546,5.67,3.546,9.943a25,25,0,0,1-.163,2.649,60.567,60.567,0,0,0-11.605-4.539,59.131,59.131,0,0,0-4.558-11.41A26.045,26.045,0,0,1,449,129.008Zm.1,35.553a86.616,86.616,0,0,1-.463,8.966,87.32,87.32,0,0,1-12.889,12.734,90.446,90.446,0,0,1-18.2,0,87.248,87.248,0,0,1-12.888-12.734,87.033,87.033,0,0,1,0-17.931,87.249,87.249,0,0,1,12.888-12.734,90.446,90.446,0,0,1,18.2,0A87.262,87.262,0,0,1,448.635,155.6,86.592,86.592,0,0,1,449.1,164.561Zm-3.052-19.214c-.354-.349-.717-.681-1.074-1.023q.9.193,1.773.406c.144.578.28,1.164.412,1.756C446.786,146.107,446.425,145.722,446.046,145.347Zm-8.34-7.319q-2.967-2.312-6-4.278a51.691,51.691,0,0,1,9.366-3.586,50.748,50.748,0,0,1,4.045,9.028Q441.542,138.467,437.706,138.028Zm-9.556-.6c-.5-.007-1-.02-1.505-.02s-1,.013-1.5.02c.5-.317,1-.613,1.505-.914C427.147,136.81,427.649,137.106,428.15,137.423Zm-12.565.6q-3.829.438-7.413,1.164a50.912,50.912,0,0,1,4.045-9.027,51.673,51.673,0,0,1,9.367,3.586Q418.56,135.718,415.585,138.027Zm-7.266,6.3c-.358.342-.72.674-1.074,1.023-.379.375-.739.759-1.11,1.138q.2-.887.412-1.755C407.13,144.588,407.722,144.453,408.319,144.324Zm-8.491,9.279q-2.361,2.961-4.367,5.987a50.417,50.417,0,0,1-3.645-9.268A52.109,52.109,0,0,1,401,146.316Q400.271,149.833,399.828,153.6Zm-.613,9.4c-.008.517-.021,1.033-.021,1.554s.013,1.038.021,1.556c-.336-.518-.654-1.036-.973-1.555C398.561,164.043,398.879,163.525,399.215,163.007Zm.613,12.513q.439,3.765,1.169,7.287a52.109,52.109,0,0,1-9.181-4.006,50.48,50.48,0,0,1,3.646-9.268Q397.469,172.553,399.828,175.52Zm6.307,7.118c.371.379.731.763,1.11,1.138.354.349.716.681,1.074,1.023-.6-.129-1.189-.264-1.772-.406Q406.331,183.526,406.135,182.638Zm9.45,8.458q2.967,2.31,6,4.277a51.673,51.673,0,0,1-9.367,3.586,50.777,50.777,0,0,1-4.045-9.027Q411.75,190.655,415.585,191.1Zm9.556.6c.5.008,1,.02,1.5.02s1-.012,1.505-.02c-.5.317-1,.613-1.5.914C426.144,192.313,425.642,192.017,425.141,191.7Zm12.565-.6q3.831-.438,7.414-1.165a50.789,50.789,0,0,1-4.046,9.028,51.728,51.728,0,0,1-9.367-3.586Q434.732,193.405,437.706,191.1Zm7.266-6.3c.357-.342.72-.673,1.074-1.023.379-.375.74-.76,1.111-1.139-.132.592-.268,1.178-.412,1.756Q445.869,184.606,444.972,184.8Zm8.492-9.279q2.361-2.961,4.366-5.987a50.473,50.473,0,0,1,3.645,9.268,52.1,52.1,0,0,1-9.18,4.006Q453.021,179.29,453.464,175.52Zm.613-9.4c.008-.517.021-1.033.021-1.555s-.013-1.036-.021-1.553c.336.518.653,1.036.972,1.554C454.73,165.08,454.413,165.6,454.077,166.116Zm-.613-12.512q-.439-3.765-1.17-7.288a52.077,52.077,0,0,1,9.181,4.006,50.373,50.373,0,0,1-3.645,9.268Q455.823,156.572,453.464,153.6ZM426.645,119.24c4.148,0,8.075,2.414,11.452,6.565a61.049,61.049,0,0,0-11.451,4.911,61.085,61.085,0,0,0-11.452-4.911C418.571,121.654,422.5,119.24,426.645,119.24Zm-36.006,23.227c0-4.272,1.193-7.617,3.546-9.942s5.761-3.517,10.1-3.517a26.045,26.045,0,0,1,2.677.16,59.105,59.105,0,0,0-4.558,11.41,60.577,60.577,0,0,0-11.606,4.539A25.007,25.007,0,0,1,390.639,142.467Zm-9.884,22.094c0-4.108,2.461-8,6.692-11.338a59.636,59.636,0,0,0,4.969,11.339,59.629,59.629,0,0,0-4.969,11.338C383.216,172.559,380.755,168.67,380.755,164.561Zm23.533,35.554c-4.342,0-7.741-1.183-10.1-3.516s-3.546-5.671-3.546-9.943a25.007,25.007,0,0,1,.163-2.65,60.577,60.577,0,0,0,11.606,4.539,59.067,59.067,0,0,0,4.558,11.41A26.081,26.081,0,0,1,404.288,200.115Zm22.357,9.769c-4.147,0-8.074-2.415-11.451-6.566a61.144,61.144,0,0,0,11.452-4.91,61.109,61.109,0,0,0,11.451,4.91C434.721,207.469,430.793,209.884,426.645,209.884Zm36.007-23.229c0,4.273-1.193,7.618-3.546,9.944s-5.76,3.516-10.1,3.516a26.045,26.045,0,0,1-2.677-.16,59.131,59.131,0,0,0,4.558-11.41,60.567,60.567,0,0,0,11.605-4.539A25,25,0,0,1,462.652,186.655Zm3.192-10.755a59.627,59.627,0,0,0-4.969-11.338,59.662,59.662,0,0,0,4.969-11.339c4.232,3.34,6.693,7.23,6.693,11.338S470.076,172.56,465.844,175.9Z" transform="translate(-351.755 -89.24)" fill="#216e93"/>
    <g id="image" transform="translate(-340 -386)">
      <rect id="img_bg" width="150" height="150" transform="translate(340 386)" fill="none" stroke="#95989a" stroke-linejoin="round" stroke-width="1"/>
    </g>
  </g>
</svg>
