<svg xmlns="http://www.w3.org/2000/svg" xmlns:xlink="http://www.w3.org/1999/xlink" width="182" height="100" viewBox="0 0 182 100">
  <defs>
    <clipPath id="clip-Artboard_24">
      <rect width="182" height="100"/>
    </clipPath>
  </defs>
  <g id="Artboard_24" data-name="Artboard – 24" clip-path="url(#clip-Artboard_24)">
    <g id="Group_2582" data-name="Group 2582" transform="translate(0.5)">
      <path id="Significon-Login" d="M49.5,42.75a2.25,2.25,0,1,0,2.25-2.25A2.25,2.25,0,0,0,49.5,42.75ZM5.625,40.5H9.562a1.688,1.688,0,0,1,1.687,1.688v.563a2.25,2.25,0,0,0,4.5,0V41.625A5.625,5.625,0,0,0,10.125,36H6.75A2.25,2.25,0,0,1,4.5,33.75v-4.5A2.25,2.25,0,0,1,6.75,27h3.375a5.625,5.625,0,0,0,5.625-5.625V20.25a2.235,2.235,0,0,1,.707-1.63,2.266,2.266,0,0,1,.662-.441l.023-.008a2.249,2.249,0,0,1,.759-.146c.037,0,.054-.025.1-.025a4.5,4.5,0,0,0,4.5-4.5V9A4.5,4.5,0,0,1,27,4.5H56.637a1.12,1.12,0,0,1,.709,1.991L45.024,15.732A11.231,11.231,0,0,0,40.5,24.75V66.375a5.625,5.625,0,0,0,9,4.5l18.65-13.987c.029-.022.057-.054.086-.077A8.981,8.981,0,0,0,72,49.5V11.25a2.25,2.25,0,0,0-4.5,0V49.5a4.494,4.494,0,0,1-1.781,3.586L46.794,67.279a1.125,1.125,0,0,1-1.794-.9V23.625a4.491,4.491,0,0,1,1.782-3.586L62.344,8.367A4.689,4.689,0,0,0,59.432,0H27a9,9,0,0,0-9,9v3.48a1.125,1.125,0,0,1-.946,1.111s.007.025.008.035c-.171.016-.344.01-.514.04a6.746,6.746,0,0,0-5.3,6.584v.563A1.688,1.688,0,0,1,9.562,22.5H5.625A5.625,5.625,0,0,0,0,28.125v6.75A5.625,5.625,0,0,0,5.625,40.5ZM69.75,4.5A2.25,2.25,0,1,0,67.5,2.25,2.25,2.25,0,0,0,69.75,4.5ZM33.75,54H27a4.485,4.485,0,0,1-4.463-4.133,4.47,4.47,0,0,1,1.179-2.693l9.8-9.738a8.371,8.371,0,0,0,0-11.838l-5.934-5.935-.009.009a2.47,2.47,0,0,0-3.492,3.494l0,0,6.745,6.745a2.27,2.27,0,0,1,0,3.211L20.61,43.342A8.877,8.877,0,0,0,27,58.5h6.75a2.25,2.25,0,0,0,0-4.5Z" transform="translate(105.518 14)" fill="#216e93" fill-rule="evenodd"/>
      <text id="_1." data-name="1." transform="translate(14.5 29)" fill="#51514f" font-size="30" font-family="LibreFranklin-SemiBold, Libre Franklin" font-weight="600"><tspan x="-10.965" y="0">1.</tspan></text>
      <path id="Significon-Files" d="M86,24.749a2.251,2.251,0,1,1-2.25-2.251A2.252,2.252,0,0,1,86,24.749ZM86,63H47.75A6.752,6.752,0,0,1,41,56.25V9a9,9,0,0,1,9-9H68a4.5,4.5,0,0,1,4.5,4.5V18A4.5,4.5,0,0,0,77,22.5,2.251,2.251,0,0,1,77,27a9,9,0,0,1-9-9V4.5H50A4.5,4.5,0,0,0,45.5,9V55.125A3.374,3.374,0,0,0,48.874,58.5H86A4.5,4.5,0,0,0,90.5,54V23.432L76.7,9.631A2.25,2.25,0,0,1,79.883,6.45L94.316,20.881s0,.007.007.009A2.253,2.253,0,0,1,95,22.5V54a9,9,0,0,1-9,9ZM74.749,67.5H77A2.251,2.251,0,0,1,77,72H43.249A11.251,11.251,0,0,1,32,60.75V27a2.251,2.251,0,1,1,4.5,0V60.75A6.748,6.748,0,0,0,43.249,67.5h31.5Zm-40.5-47.25A2.249,2.249,0,1,1,36.5,18a2.25,2.25,0,0,1-2.251,2.251Z" transform="translate(2 13.725)" fill="#216e93" fill-rule="evenodd"/>
    </g>
  </g>
</svg>
