<svg xmlns="http://www.w3.org/2000/svg" xmlns:xlink="http://www.w3.org/1999/xlink" width="182" height="100" viewBox="0 0 182 100">
  <defs>
    <clipPath id="clip-Artboard_26">
      <rect width="182" height="100"/>
    </clipPath>
  </defs>
  <g id="Artboard_26" data-name="Artboard – 26" clip-path="url(#clip-Artboard_26)">
    <g id="Group_2583" data-name="Group 2583" transform="translate(1)">
      <text id="_3." data-name="3." transform="translate(50 29)" fill="#51514f" font-size="30" font-family="LibreFranklin-SemiBold, Libre Franklin" font-weight="600"><tspan x="-13.425" y="0">3.</tspan></text>
      <path id="Significon-Click" d="M36,47.251A2.25,2.25,0,1,1,33.75,45,2.25,2.25,0,0,1,36,47.251ZM65.889,40s0,0,0,0a1.117,1.117,0,0,0-.438,1.828L68.027,44.4h0a5.9,5.9,0,0,1-1.778,9.591l-3.992,1.681a1.678,1.678,0,0,0-.8,2.086c.031.082.054.146.069.194L62.8,61.038a7.875,7.875,0,1,1-14.55,6.027l-1.2-2.892s-.008.007-.009,0a1.953,1.953,0,0,0-2.554-1.022l-3.795,1.6h-.008A6.665,6.665,0,0,1,31.5,58.588V56.251a2.25,2.25,0,1,1,4.5,0V58.5a2.229,2.229,0,0,0,3.031,2.1l3.747-1.575c.038-.015.069-.018.11-.035a6.346,6.346,0,0,1,8.3,3.41l0,.007,1.216,2.936a3.375,3.375,0,1,0,6.236-2.583L57.327,59.58a6.175,6.175,0,0,1,3.146-8l4.077-1.716s0,0,0,0a1.118,1.118,0,0,0,.386-.25,1.1,1.1,0,0,0,0-1.549l-5.292-5.292A3.978,3.978,0,0,1,62.481,36H63a4.5,4.5,0,0,0,4.5-4.5V9A4.5,4.5,0,0,0,63,4.5H9A4.5,4.5,0,0,0,4.5,9V31.5A4.5,4.5,0,0,0,9,36H29.25a2.25,2.25,0,0,0,2.25-2.25V23.23a6.355,6.355,0,0,1,10.857-4.485c.021.021.02.009.035.022l12,12a2.387,2.387,0,1,1-3.375,3.375L38.728,21.854c-.005,0,0,.012-.009,0A1.583,1.583,0,0,0,36,22.957V34.875A5.625,5.625,0,0,1,30.375,40.5H9a9,9,0,0,1-9-9V9A9,9,0,0,1,9,0H63a9,9,0,0,1,9,9V31.5A8.984,8.984,0,0,1,65.889,40Z" transform="translate(71.454 14)" fill="#216e93" fill-rule="evenodd"/>
    </g>
  </g>
</svg>
