<svg xmlns="http://www.w3.org/2000/svg" xmlns:xlink="http://www.w3.org/1999/xlink" width="182" height="100" viewBox="0 0 182 100">
  <defs>
    <clipPath id="clip-Artboard_25">
      <rect width="182" height="100"/>
    </clipPath>
  </defs>
  <g id="Artboard_25" data-name="Artboard – 25" clip-path="url(#clip-Artboard_25)">
    <text id="_2." data-name="2." transform="translate(12.5 29)" fill="#51514f" font-size="30" font-family="LibreFranklin-SemiBold, Libre Franklin" font-weight="600"><tspan x="-12.975" y="0">2.</tspan></text>
    <path id="Significon-Restore" d="M45,29.249A2.251,2.251,0,1,1,42.749,27,2.252,2.252,0,0,1,45,29.249Zm-9,0A2.25,2.25,0,1,1,33.75,27,2.249,2.249,0,0,1,36,29.249ZM63,49.5H55.687A1.689,1.689,0,0,0,54,51.187V63a9,9,0,0,1-9,9H9a9,9,0,0,1-9-9V41.625A5.625,5.625,0,0,1,5.626,36H47.815A1.688,1.688,0,0,0,49.5,34.312V27A4.5,4.5,0,0,0,45,22.5H9A4.5,4.5,0,0,0,4.5,27v2.251a2.251,2.251,0,0,1-4.5,0V27a9,9,0,0,1,9-9H45a9,9,0,0,1,9,9v7.876A5.623,5.623,0,0,1,48.377,40.5H6.189A1.686,1.686,0,0,0,4.5,42.188V63A4.5,4.5,0,0,0,9,67.5H45A4.5,4.5,0,0,0,49.5,63V50.625a5.6,5.6,0,0,1,2.938-4.913.442.442,0,0,0,.22-.121A5.554,5.554,0,0,1,55.125,45H63a4.5,4.5,0,0,0,4.5-4.5V9A4.5,4.5,0,0,0,63,4.5H31.5A4.5,4.5,0,0,0,27,9v2.25a2.25,2.25,0,1,1-4.5,0V9a9,9,0,0,1,9-9H63a9,9,0,0,1,9,9V40.5a9,9,0,0,1-9,9Z" transform="translate(29.5 14)" fill="#216e93" fill-rule="evenodd"/>
    <path id="Significon-Check" d="M69.367,86.293,40.541,115.118c-.143.167-.257.35-.415.507l-3.91,3.91a9.109,9.109,0,0,1-12.8,0L18.377,114.5c-.163-.161-.279-.348-.425-.517L2.632,98.664a8.989,8.989,0,0,1,0-12.71l3.91-3.911a8.988,8.988,0,0,1,12.713,0l5.621,5.621c.023.021.045.024.071.05,1.756,1.755,5.73,1.755,7.486,0,.024-.024.045-.03.069-.05L43.631,76.538c.019-.021.026-.049.048-.071a2.25,2.25,0,0,1,3.182,3.183l.008.007L34.918,91.605c-.033.029-.066.05-.1.083-3.075,3.075-9.182,3.075-12.257,0-.036-.035-.069-.055-.1-.086l-5.587-5.587a5.619,5.619,0,0,0-7.946,0L6.6,88.338a5.619,5.619,0,0,0,0,7.943L21.927,111.6a5.37,5.37,0,0,0,.422.517l3.448,3.445a5.741,5.741,0,0,0,8.037,0l2.321-2.322a5.606,5.606,0,0,0,.419-.513L65.394,83.91a5.614,5.614,0,0,0,0-7.944L62.74,73.31h0c-.262-.262-.476-.525-.771-.82a2.249,2.249,0,0,1,3.183-3.18c.3.3.495.552.765.823h0l3.45,3.45a8.985,8.985,0,0,1,0,12.71ZM51.744,74.923a2.25,2.25,0,1,1,2.25-2.25,2.251,2.251,0,0,1-2.25,2.25Z" transform="translate(110 -45.651)" fill="#216e93" fill-rule="evenodd"/>
  </g>
</svg>
