<?xml version="1.0" encoding="utf-8"?>
<!-- Generator: Adobe Illustrator 23.1.1, SVG Export Plug-In . SVG Version: 6.00 Build 0)  -->
<svg version="1.1" id="Logo" xmlns="http://www.w3.org/2000/svg" xmlns:xlink="http://www.w3.org/1999/xlink" x="0px" y="0px"
	 viewBox="0 0 530 514.8" style="enable-background:new 0 0 530 514.8;" xml:space="preserve">
<title>CSA-V-Logo</title>
<path d="M70.6,195h388.8c12.3,0.1,23.2-7.7,27.1-19.4c3.1-11.6-0.8-24-10.9-31L281.2,5.2c-10.1-7-23.2-7-32.5,0L54.4,144.6
	c-7,5.4-11.6,13.2-11.6,22.5C42.6,182.4,55,194.9,70.3,195C70.4,195,70.5,195,70.6,195z M265,62.5l107.7,76.7H157.3L265,62.5z"/>
<polygon points="226.9,385.6 227.8,260.4 163.4,229.3 163.4,416.7 "/>
<polygon points="367.8,415.8 367.8,231.1 304.2,262.2 304.2,387.4 "/>
<path d="M515.4,474.9h-23.5v-23.4c0-8.1-6.5-14.6-14.6-14.6h-22V249.4c0-17.9-14.5-32.4-32.4-32.4c-17.9,0-32.4,14.5-32.4,32.4
	v187.5H139.4V249.4c0-17.9-14.5-32.4-32.4-32.4c-17.9,0-32.4,14.5-32.4,32.4v187.4H52.7c-8.1,0-14.6,6.5-14.6,14.6v23.4H14.7
	c-8.1,0-14.6,6.5-14.7,14.6c0,0,0,0,0,0v25.4h530v-25.3C530,481.4,523.5,474.9,515.4,474.9C515.4,474.9,515.4,474.9,515.4,474.9z"/>
</svg>
