<svg id="Logo" xmlns="http://www.w3.org/2000/svg" viewBox="0 0 927.37 869.35"><title>SAO-Logo-FINALS</title><path d="M63.42,616.11c-11.89,0-25.22-6.15-35.5-15.1L9.16,623.43a79.59,79.59,0,0,0,53.53,20.89c34.44,0,54.45-20.79,54.45-44.79,0-20.43-11-32.18-28.67-39.32l-18.42-7.45c-12.61-5-22.06-8.25-22.06-17.11,0-8.27,7.17-13,18.43-13,11.42,0,20.47,4,30,11.32l16.49-20.59a66.83,66.83,0,0,0-46.49-18.94C36.34,494.48,15,513.61,15,537.55c0,21,14.19,33.31,29.16,39.4l18.78,8c12.63,5.19,20.84,8.11,20.84,17.21C83.73,610.74,77.06,616.11,63.42,616.11Z"/><path d="M229,581.79c0-30-15.52-52.8-46.86-52.8-26.42,0-51.88,22-51.88,57.7,0,36.42,24.28,57.63,55.64,57.63a71.62,71.62,0,0,0,39-12.39l-10.78-19.65c-8,4.67-15.47,7.2-23.79,7.2-14.68,0-25.6-7.33-28.53-23.28h65.81A73.47,73.47,0,0,0,229,581.79Zm-67.53-7.15c2.21-13.9,11.1-20.81,21.41-20.81,13,0,18.27,8.71,18.27,20.81Z"/><path d="M240.43,611.15c0,18.53,12.73,33.17,32.8,33.17,12.36,0,22.74-5.79,32-13.93H306l2.35,11.27H335V578.77c0-33.71-15.58-49.78-43.7-49.78-17.3,0-33,6-47,14.48l11.59,21.4c10.67-6,19.88-9.94,29.11-9.94,11.94,0,16.74,6.28,17.39,15.9C258.87,575.42,240.43,588,240.43,611.15Zm61.95-20.67V609.7c-5.78,5.76-10.74,9.41-18.11,9.41-7.75,0-12.62-3.47-12.62-10.56C271.65,600.24,279.21,593.61,302.38,590.48Z"/><path d="M454.08,641.66V567.45c6.93-7.25,13.19-10.69,18.72-10.69,9.26,0,13.58,5,13.58,20.78v64.12H519V573.37c0-27.5-10.64-44.38-34.41-44.38-14.53,0-24.86,8.43-34.54,18.52-5.56-11.84-14.9-18.52-30.36-18.52-14.46,0-24.32,7.7-33.34,16.77h-.81l-2.35-14.11H356.58v110h32.59V567.45c6.94-7.25,13.28-10.69,18.73-10.69,9.25,0,13.58,5,13.58,20.78v64.12Z"/><path d="M567.52,644.32c7.41,0,12.76-1.17,16.36-2.71l-3.89-24a14,14,0,0,1-4,.45c-2.66,0-5.89-2.22-5.89-9.21V486.32h-32.6V607.48C537.51,629.73,545.16,644.32,567.52,644.32Z"/><path d="M678.21,612.28c-8,4.67-15.47,7.2-23.79,7.2-14.68,0-25.61-7.33-28.53-23.28H691.7a73.47,73.47,0,0,0,1.36-14.41c0-30-15.52-52.8-46.86-52.8-26.42,0-51.89,22-51.89,57.7,0,36.42,24.29,57.63,55.65,57.63a71.62,71.62,0,0,0,39-12.39Zm-31.28-58.45c13,0,18.28,8.71,18.28,20.81H625.53C627.74,560.74,636.63,553.83,646.93,553.83Z"/><path d="M746.44,620.21c-9.21,0-18.42-4-28.38-11.56L703.39,629c11.14,9.07,27.73,15.36,42.24,15.36,29.48,0,45.18-15.57,45.18-35.48,0-20.11-15.7-28-29.63-33.1-11.4-4.15-21.7-6.84-21.7-13.85,0-5.49,4.15-8.79,12.57-8.79,7.61,0,15.34,3.71,23.16,9.39l14.59-19.57C780.43,535.8,767.89,529,751,529c-25.38,0-42,14-42,34.44,0,18.18,15.63,27.13,29.11,32.35,11.32,4.43,22.22,7.72,22.22,15C760.33,616.51,756.14,620.21,746.44,620.21Z"/><path d="M843.33,620.21c-9.2,0-18.41-4-28.38-11.56L800.29,629c11.14,9.07,27.73,15.36,42.23,15.36,29.48,0,45.19-15.57,45.19-35.48,0-20.11-15.7-28-29.63-33.1-11.4-4.15-21.7-6.84-21.7-13.85,0-5.49,4.14-8.79,12.56-8.79,7.62,0,15.34,3.71,23.17,9.39l14.58-19.57C877.33,535.8,864.78,529,847.92,529c-25.38,0-42,14-42,34.44,0,18.18,15.62,27.13,29.11,32.35,11.32,4.43,22.22,7.72,22.22,15C857.23,616.51,853,620.21,843.33,620.21Z"/><path d="M45.39,673.57,0,818.08H33.4l8.93-34.42H86.4l8.89,34.42h34.58L84.48,673.57Zm3.53,84.7,3.47-13.38c4-14.45,7.87-31.35,11.37-46.61h.89c3.86,15.08,7.72,32.16,11.73,46.61l3.46,13.38Z"/><path d="M190.94,794.44c-14.16,0-24.64-12.28-24.64-31.32s10.06-31.4,25.74-31.4c5.24,0,9.65,2,14.91,6.49l15.4-21a47.79,47.79,0,0,0-32.14-11.84c-30.39,0-57.31,21.13-57.31,57.7s23.68,57.62,54.39,57.62c11.92,0,25.56-3.65,36.26-13.09l-12.76-21.32C205.08,790.87,198.17,794.44,190.94,794.44Z"/><path d="M285.84,794.44c-14.16,0-24.64-12.28-24.64-31.32s10.06-31.4,25.74-31.4c5.24,0,9.65,2,14.91,6.49l15.4-21a47.79,47.79,0,0,0-32.14-11.84c-30.39,0-57.31,21.13-57.31,57.7s23.68,57.62,54.39,57.62c11.92,0,25.56-3.65,36.26-13.09l-12.76-21.32C300,790.87,293.07,794.44,285.84,794.44Z"/><path d="M374.58,705.42c-26.42,0-51.88,22-51.88,57.7,0,36.42,24.28,57.62,55.64,57.62a71.62,71.62,0,0,0,39-12.39L406.59,788.7c-8,4.67-15.47,7.2-23.79,7.2-14.68,0-25.61-7.32-28.53-23.28h65.81a73.26,73.26,0,0,0,1.36-14.4C421.44,728.19,405.92,705.42,374.58,705.42Zm-20.67,45.64c2.21-13.89,11.1-20.8,21.4-20.8,13,0,18.28,8.71,18.28,20.8Z"/><path d="M490.67,752.16c-11.4-4.15-21.7-6.83-21.7-13.85,0-5.49,4.15-8.78,12.57-8.78,7.61,0,15.33,3.7,23.16,9.39l14.59-19.57c-9.37-7.12-21.92-13.93-38.77-13.93-25.38,0-42,14-42,34.43,0,18.19,15.63,27.13,29.11,32.35,11.32,4.44,22.22,7.72,22.22,15,0,5.76-4.19,9.46-13.89,9.46-9.21,0-18.42-4-28.38-11.55l-14.67,20.3c11.14,9.08,27.73,15.36,42.24,15.36,29.48,0,45.18-15.57,45.18-35.48C520.3,765.15,504.6,757.31,490.67,752.16Z"/><path d="M587.57,752.16c-11.4-4.15-21.7-6.83-21.7-13.85,0-5.49,4.14-8.78,12.56-8.78,7.62,0,15.34,3.7,23.17,9.39l14.58-19.57c-9.36-7.12-21.91-13.93-38.77-13.93-25.38,0-42,14-42,34.43,0,18.19,15.62,27.13,29.1,32.35,11.33,4.44,22.23,7.72,22.23,15,0,5.76-4.2,9.46-13.9,9.46-9.2,0-18.41-4-28.38-11.55l-14.66,20.3c11.14,9.08,27.73,15.36,42.23,15.36,29.48,0,45.19-15.57,45.19-35.48C617.2,765.15,601.5,757.31,587.57,752.16Z"/><path d="M639.71,800.57c-4.88,0-9.41,3.81-9.41,10.29a9.42,9.42,0,1,0,18.81,0C649.11,804.38,644.58,800.57,639.71,800.57Z"/><path d="M710.39,709c-25.58,0-47.8,20.49-47.8,56.1,0,35.21,22.22,55.69,47.8,55.69s47.81-20.48,47.81-55.69C758.2,729.44,736,709,710.39,709Zm0,103.15c-21.5,0-37.51-19-37.51-47.05s16-47.46,37.51-47.46,37.52,19.43,37.52,47.46S731.9,812.1,710.39,812.1Z"/><path d="M787.6,731.48h-.49L786,711.61h-8.29V818.08h9.8V745.67c8.12-20.14,19.47-27.41,29.05-27.41a23.91,23.91,0,0,1,9.62,1.77l2.22-8.87A22.21,22.21,0,0,0,817.88,709C805.22,709,794.8,718.39,787.6,731.48Z"/><path d="M892.27,809H869.46c-15.88,0-20.32-6.17-20.32-13.84,0-7.09,4-11.62,8.65-15.41a36.34,36.34,0,0,0,17.61,4.55c20.84,0,37.21-15.83,37.21-37.61,0-11.22-4.88-20.84-11.76-26.7H925.6v-8.33H889.55A37.94,37.94,0,0,0,875.4,709c-20.8,0-37.47,15.65-37.47,37.56a39.07,39.07,0,0,0,13.48,29.18v.89c-4.75,3.32-11.62,10.11-11.62,19.64a19.13,19.13,0,0,0,9.4,17.07v.89c-9.8,6.92-15.92,16.39-15.92,25.68,0,18,16.9,29.49,43.77,29.49,30.69,0,50.33-17.61,50.33-36C927.37,816.58,916.2,809,892.27,809Zm-44.41-62.44c0-18.18,12.46-29.45,27.54-29.45s27.54,11.47,27.54,29.45S890.08,776.4,875.4,776.4,847.86,764.34,847.86,746.51Zm30.2,114.9c-22.44,0-35.3-9.09-35.3-22.57,0-7.5,4.12-15.7,14-22.35a68.69,68.69,0,0,0,13.17,1.73h22.82c16.12,0,24.63,4.48,24.63,16.23C917.35,847.84,902.05,861.41,878.06,861.41Z"/><path d="M61.79,170.72H402.22A24.83,24.83,0,0,0,426,153.77c2.71-10.17-.68-21-9.5-27.13L246.22,4.57c-8.82-6.09-20.34-6.09-28.47,0L47.56,126.63c-6.09,4.74-10.17,11.52-10.17,19.67A24.31,24.31,0,0,0,61.79,170.72ZM232,54.74l94.27,67.14H137.75Z"/><polygon points="202.68 331.65 203.44 227.98 143.06 200.8 143.06 358.83 202.68 331.65"/><polygon points="261.35 331.65 260.58 227.98 320.96 200.8 320.96 358.83 261.35 331.65"/><path d="M451.29,409.78H430.73V389.32a12.81,12.81,0,0,0-12.8-12.8H398.7V218.32a28.38,28.38,0,0,0-56.76,0v158.2l-219.85,0V218.32a28.38,28.38,0,0,0-56.76,0V376.47H46.13a12.81,12.81,0,0,0-12.8,12.8v20.45H12.8A12.81,12.81,0,0,0,0,422.52v22.25H464V422.62A12.79,12.79,0,0,0,451.29,409.78Z"/></svg>