<?xml version="1.0" encoding="utf-8"?>
<!-- Generator: Adobe Illustrator 23.1.1, SVG Export Plug-In . SVG Version: 6.00 Build 0)  -->
<svg version="1.1" id="Logo" xmlns="http://www.w3.org/2000/svg" xmlns:xlink="http://www.w3.org/1999/xlink" x="0px" y="0px"
	 viewBox="0 0 2124 515" style="enable-background:new 0 0 2124 515;" xml:space="preserve">
<title>CSA-V-Logo</title>
<path d="M577.9,412.6l18.6-22.2c10.2,8.9,23.4,15,35.2,15c13.5,0,20.2-5.3,20.2-13.8c0-9-8.2-11.9-20.7-17.1l-18.6-8
	c-14.9-6-28.9-18.2-28.9-39.1c0-23.8,21.2-42.7,51.1-42.7c17.2,0,33.8,6.8,46.1,18.8l-16.4,20.4c-9.5-7.2-18.4-11.2-29.8-11.2
	c-11.2,0-18.3,4.7-18.3,12.9c0,8.8,9.4,12,21.9,17l18.3,7.4c17.5,7.1,28.4,18.7,28.4,39c0,23.8-19.8,44.4-54,44.4
	C611.3,433.3,592.4,425.9,577.9,412.6z"/>
<path d="M699.1,376.1c0-35.4,25.3-57.3,51.5-57.3c31.1,0,46.5,22.6,46.5,52.4c0,4.8-0.4,9.6-1.3,14.3h-65.3
	c2.9,15.8,13.7,23.1,28.3,23.1c8.2,0,15.7-2.5,23.6-7.1L793,421c-11.4,7.8-24.9,12.1-38.7,12.3C723.2,433.3,699.1,412.3,699.1,376.1
	z M769.4,364.1c0-12-5.2-20.6-18.1-20.6c-10.2,0-19,6.9-21.2,20.6H769.4z"/>
<path d="M810.7,400.4c0-23,18.3-35.5,61.5-40c-0.7-9.5-5.4-15.8-17.3-15.8c-9.2,0-18.3,3.9-28.9,9.9l-11.5-21.2
	c13.8-8.5,29.5-14.4,46.6-14.4c27.9,0,43.4,15.9,43.4,49.4v62.4h-26.4l-2.3-11.2h-0.8c-9.2,8.1-19.5,13.8-31.8,13.8
	C823.3,433.3,810.7,418.8,810.7,400.4z M872.1,399v-19.1c-23,3.1-30.5,9.7-30.5,17.9c0,7,4.8,10.5,12.5,10.5
	C861.5,408.3,866.4,404.7,872.1,399z"/>
<path d="M930.3,321.5h26.4l2.3,14h0.8c9-9,18.7-16.6,33.1-16.6c15.3,0,24.6,6.6,30.1,18.4c9.6-10,19.8-18.4,34.3-18.4
	c23.6,0,34.1,16.8,34.1,44v67.8h-32.3V367c0-15.7-4.3-20.6-13.5-20.6c-5.5,0-11.7,3.4-18.6,10.6v73.6h-32.4V367
	c0-15.7-4.3-20.6-13.5-20.6c-5.4,0-11.7,3.4-18.6,10.6v73.6h-32.3V321.5z"/>
<path d="M1113.1,396.7V276.5h32.3v121.5c0,6.9,3.2,9.1,5.8,9.1c1.3,0,2.7-0.1,4-0.4l3.9,23.9c-3.6,1.5-8.9,2.7-16.2,2.7
	C1120.7,433.3,1113.1,418.8,1113.1,396.7z"/>
<path d="M1168.4,376.1c0-35.4,25.3-57.3,51.5-57.3c31.1,0,46.5,22.6,46.5,52.4c0,4.8-0.4,9.6-1.3,14.3h-65.3
	c2.9,15.8,13.7,23.1,28.3,23.1c8.2,0,15.7-2.5,23.6-7.1l10.7,19.5c-11.4,7.8-24.9,12.1-38.7,12.3
	C1192.5,433.3,1168.4,412.3,1168.4,376.1z M1238.7,364.1c0-12-5.2-20.6-18.1-20.6c-10.2,0-19,6.9-21.2,20.6H1238.7z"/>
<path d="M1277.7,418l14.6-20.1c9.9,7.5,19,11.5,28.2,11.5c9.6,0,13.8-3.7,13.8-9.4c0-7.2-10.8-10.5-22-14.9
	c-13.4-5.2-28.9-14.1-28.9-32.1c0-20.3,16.5-34.2,41.7-34.2c16.7,0,29.2,6.8,38.5,13.8l-14.5,19.4c-7.8-5.6-15.4-9.3-23-9.3
	c-8.4,0-12.5,3.3-12.5,8.7c0,7,10.2,9.6,21.5,13.7c13.8,5.1,29.4,12.9,29.4,32.9c0,19.8-15.6,35.2-44.8,35.2
	C1305.2,433.3,1288.8,427.1,1277.7,418z"/>
<path d="M1373.8,418l14.6-20.1c9.9,7.5,19,11.5,28.2,11.5c9.6,0,13.8-3.7,13.8-9.4c0-7.2-10.8-10.5-22-14.9
	c-13.4-5.2-28.9-14.1-28.9-32.1c0-20.3,16.5-34.2,41.7-34.2c16.7,0,29.2,6.8,38.5,13.8l-14.5,19.4c-7.8-5.6-15.4-9.3-23-9.3
	c-8.4,0-12.5,3.3-12.5,8.7c0,7,10.2,9.6,21.5,13.7c13.8,5.1,29.4,12.9,29.4,32.9c0,19.8-15.6,35.2-44.8,35.2
	C1401.3,433.3,1384.9,427.1,1373.8,418z"/>
<path d="M1551.7,287.3h38.8l45,143.4h-34.3l-18.7-72.7c-4-14.3-7.8-31.3-11.6-46.2h-0.9c-3.5,15.1-7.3,31.9-11.3,46.2l-18.8,72.6
	h-33.2L1551.7,287.3z M1536.3,371.3h69v25.2h-69V371.3z"/>
<path d="M1640.7,376.1c0-36.3,26.7-57.3,56.9-57.3c11.7-0.2,23.1,4,31.9,11.8l-15.3,20.8c-5.2-4.4-9.6-6.4-14.8-6.4
	c-15.6,0-25.5,12.3-25.5,31.2s10.4,31.1,24.5,31.1c7.2,0,14-3.5,19.7-8l12.7,21.2c-10.6,9.4-24.2,13-36,13
	C1664.2,433.3,1640.7,412.3,1640.7,376.1z"/>
<path d="M1736,376.1c0-36.3,26.7-57.3,56.9-57.3c11.7-0.2,23.1,4,31.9,11.8l-15.3,20.8c-5.2-4.4-9.6-6.4-14.8-6.4
	c-15.6,0-25.5,12.3-25.5,31.2s10.4,31.1,24.4,31.1c7.2,0,14-3.5,19.7-8l12.7,21.2c-10.6,9.4-24.2,13-36,13
	C1759.5,433.3,1736,412.3,1736,376.1z"/>
<path d="M1831.2,376.1c0-35.4,25.3-57.3,51.5-57.3c31.1,0,46.5,22.6,46.5,52.4c0,4.8-0.4,9.6-1.3,14.3h-65.3
	c2.9,15.8,13.7,23.1,28.3,23.1c8.2,0,15.7-2.5,23.6-7.1l10.7,19.5c-11.4,7.8-24.9,12.1-38.7,12.3
	C1855.3,433.3,1831.2,412.3,1831.2,376.1z M1901.6,364.1c0-12-5.2-20.6-18.1-20.6c-10.2,0-19,6.9-21.2,20.6H1901.6z"/>
<path d="M1940.6,418l14.6-20.1c9.9,7.5,19,11.5,28.2,11.5c9.6,0,13.8-3.7,13.8-9.4c0-7.2-10.8-10.5-22-14.9
	c-13.4-5.2-28.9-14.1-28.9-32.1c0-20.3,16.5-34.2,41.7-34.2c16.7,0,29.2,6.8,38.5,13.8l-14.5,19.4c-7.8-5.6-15.4-9.3-23-9.3
	c-8.3,0-12.5,3.3-12.5,8.7c0,7,10.2,9.6,21.5,13.7c13.8,5.1,29.4,12.9,29.4,32.9c0,19.8-15.6,35.2-44.8,35.2
	C1968.1,433.3,1951.6,427.1,1940.6,418z"/>
<path d="M2036.7,418l14.5-20.1c9.9,7.5,19,11.5,28.2,11.5c9.6,0,13.8-3.7,13.8-9.4c0-7.2-10.8-10.5-22-14.9
	c-13.4-5.2-28.9-14.1-28.9-32.1c0-20.3,16.5-34.2,41.7-34.2c16.7,0,29.2,6.8,38.5,13.8l-14.5,19.4c-7.8-5.6-15.4-9.3-23-9.3
	c-8.4,0-12.5,3.3-12.5,8.7c0,7,10.2,9.6,21.5,13.7c13.8,5.1,29.4,12.9,29.4,32.9c0,19.8-15.6,35.2-44.8,35.2
	C2064.2,433.3,2047.7,427.1,2036.7,418z"/>
<path d="M72.1,195h388.8c12.3,0.1,23.2-7.7,27.1-19.4c3.1-11.6-0.8-24-10.9-31L282.7,5.3c-10.1-7-23.2-7-32.5,0L55.9,144.6
	c-7,5.4-11.6,13.2-11.6,22.5c-0.1,15.3,12.3,27.8,27.6,27.9C72,195,72,195,72.1,195z M266.5,62.5l107.6,76.7H158.9L266.5,62.5z"/>
<polygon points="228.4,385.6 229.3,260.4 164.9,229.3 164.9,416.7 "/>
<polygon points="369.3,415.8 369.3,231.1 305.8,262.2 305.8,387.4 "/>
<path d="M516.9,474.9h-23.5v-23.4c0-8.1-6.5-14.6-14.6-14.6h-22V249.4c0-17.9-14.5-32.4-32.4-32.4S392,231.5,392,249.4v187.5
	l-251-0.1V249.4c0-17.9-14.5-32.4-32.4-32.4s-32.4,14.5-32.4,32.4v187.4H54.2c-8.1,0-14.6,6.5-14.6,14.6v23.4H16.2
	c-8.1,0-14.6,6.5-14.6,14.6v25.4h529.9v-25.3C531.5,481.5,525,474.9,516.9,474.9z"/>
</svg>
