<svg xmlns="http://www.w3.org/2000/svg" xmlns:xlink="http://www.w3.org/1999/xlink" width="100" height="100" viewBox="0 0 100 100"><defs><clipPath id="b"><rect width="100" height="100"/></clipPath></defs><g id="a" clip-path="url(#b)"><g transform="translate(16.15 14)"><g transform="translate(0 0)"><path d="M246.831,339.2c11.167,0,20.965-8.41,20.965-18a1.5,1.5,0,1,1,3,0c0,11.186-11.2,21-23.96,21a1.5,1.5,0,0,1,0-3Z" transform="translate(-236.348 -274.815)" fill="#216e93" stroke="#216e93" stroke-width="1"/><path d="M130.262,9.208a1.5,1.5,0,0,1-.778-.217,42.377,42.377,0,0,0-41.925-.882,1.5,1.5,0,0,1-1.451-2.625,45.432,45.432,0,0,1,44.931.94,1.5,1.5,0,0,1-.778,2.783Z" transform="translate(-74.853 0)" fill="#216e93" stroke="#216e93" stroke-width="1"/><path d="M21.52,80.566c5.8-10.492,18.657-17.272,32.758-17.272s26.958,6.78,32.758,17.272a1.5,1.5,0,1,1-2.621,1.453C79.136,72.466,67.3,66.294,54.278,66.294S29.419,72.466,24.14,82.019a1.5,1.5,0,1,1-2.621-1.453Z" transform="translate(-21.332 -54.408)" fill="#216e93" stroke="#216e93" stroke-width="1"/><path d="M145.6,212.493c0-10.429-7.558-18-17.97-18-10.916,0-17.97,6.476-17.97,16.5a1.5,1.5,0,1,1-3,0c0-11.662,8.426-19.5,20.965-19.5a20.522,20.522,0,0,1,20.965,21c0,8.765-3.118,16.02-10.114,23.522a1.5,1.5,0,0,1-2.188-2.048C142.734,227.063,145.6,220.441,145.6,212.493Z" transform="translate(-94.688 -164.611)" fill="#216e93" stroke="#216e93" stroke-width="1"/><path d="M72.617,127.395c17.353,0,29.95,11.984,29.95,28.5,0,4.453-1.495,8.674-3.109,12.573a1.5,1.5,0,1,1-2.767-1.148c1.5-3.614,2.881-7.5,2.881-11.425,0-15.013-11.085-25.5-26.955-25.5-15.367,0-26.955,11.607-26.955,27a7.488,7.488,0,1,0,14.975,0c0-7.064,4.925-12,11.98-12s11.98,4.935,11.98,12c0,9.787-5.528,18.02-15.984,23.811a1.5,1.5,0,0,1-1.451-2.625c9.582-5.305,14.44-12.433,14.44-21.186,0-6.216-4.513-9-8.985-9s-8.985,2.783-8.985,9a10.483,10.483,0,1,1-20.965,0C42.667,140.29,55.542,127.395,72.617,127.395Z" transform="translate(-39.672 -109.51)" fill="#216e93" stroke="#216e93" stroke-width="1"/></g></g></g></svg>