<svg xmlns="http://www.w3.org/2000/svg" xmlns:xlink="http://www.w3.org/1999/xlink" width="100" height="100" viewBox="0 0 100 100"><defs><clipPath id="b"><rect width="100" height="100"/></clipPath></defs><g id="a" clip-path="url(#b)"><path d="M69.46,101.672l-9.266,9.257a8.7,8.7,0,0,1-5.716,2.533A2.8,2.8,0,0,1,54,113.5a4.5,4.5,0,0,1-4.5-4.5v-2.25a2.25,2.25,0,0,0-2.25-2.25h-18a2.25,2.25,0,0,1,0-4.5H48.375A5.625,5.625,0,0,1,54,105.626v1.09a1.681,1.681,0,0,0,2.794,1.266c.093-.079.194-.143.281-.23l9.175-9.175a4.326,4.326,0,0,0,0-6.117l-9.175-9.176a4.288,4.288,0,0,0-.46-.376,1.653,1.653,0,0,0-.928-.31A1.688,1.688,0,0,0,54,84.286v1.09A5.625,5.625,0,0,1,48.374,91H24.749a2.25,2.25,0,0,0-2.25,2.25V95.5A4.5,4.5,0,0,1,18,100a2.678,2.678,0,0,1-.479-.04A8.684,8.684,0,0,1,11.8,97.428L2.539,88.172a8.769,8.769,0,0,1,0-12.342l9.266-9.256a8.688,8.688,0,0,1,5.715-2.534A2.68,2.68,0,0,1,18,64a4.5,4.5,0,0,1,4.5,4.5v2.25A2.25,2.25,0,0,0,24.75,73H31.5a2.25,2.25,0,0,1,0,4.5H23.625A5.625,5.625,0,0,1,18,71.876v-1.09a1.681,1.681,0,0,0-2.794-1.266c-.093.079-.193.143-.281.23L5.749,78.925a4.326,4.326,0,0,0,0,6.117l9.175,9.176a4.287,4.287,0,0,0,.46.376,1.645,1.645,0,0,0,.928.31A1.688,1.688,0,0,0,18,93.216v-1.09A5.625,5.625,0,0,1,23.625,86.5H47.25a2.25,2.25,0,0,0,2.25-2.25V82A4.5,4.5,0,0,1,54,77.5a2.678,2.678,0,0,1,.479.04,8.689,8.689,0,0,1,5.716,2.533l9.266,9.256a8.767,8.767,0,0,1,0,12.342ZM40.5,77.5a2.25,2.25,0,1,1,2.25-2.25A2.25,2.25,0,0,1,40.5,77.5Z" transform="translate(14 -39.001)" fill="#216e93" fill-rule="evenodd"/></g></svg>