<?xml version="1.0" encoding="utf-8"?>
<!-- Generator: Adobe Illustrator 24.0.3, SVG Export Plug-In . SVG Version: 6.00 Build 0)  -->
<svg version="1.1" id="Layer_1" xmlns="http://www.w3.org/2000/svg" xmlns:xlink="http://www.w3.org/1999/xlink" x="0px" y="0px"
	 viewBox="0 0 100 100" style="enable-background:new 0 0 100 100;" xml:space="preserve">
<style type="text/css">
	.st0{clip-path:url(#SVGID_2_);}
	.st1{fill-rule:evenodd;clip-rule:evenodd;fill:#FFFFFF;}
</style>
<g>
	<defs>
		<rect id="SVGID_1_" width="100" height="100"/>
	</defs>
	<clipPath id="SVGID_2_">
		<use xlink:href="#SVGID_1_"  style="overflow:visible;"/>
	</clipPath>
	<g id="a" class="st0">
		<path class="st1" d="M23,30.2c0-1.2,1-2.2,2.2-2.2s2.2,1,2.2,2.2s-1,2.2-2.2,2.2S23,31.5,23,30.2z M32,30.2c0-1.2,1-2.2,2.2-2.2
			s2.2,1,2.2,2.2s-1,2.2-2.2,2.2S32,31.5,32,30.2z M41,30.2c0-1.2,1-2.2,2.2-2.2s2.2,1,2.2,2.2s-1,2.2-2.2,2.2S41,31.5,41,30.2z
			 M86,42.6V73c0,5-4,9-9,9H23c-5,0-9-4-9-9V48.2c0-1.2,1-2.2,2.2-2.2s2.2,1,2.2,2.2V73c0,2.5,2,4.5,4.5,4.5h54c2.5,0,4.5-2,4.5-4.5
			V43.8c0-1.2-1-2.2-2.2-2.2H19.6c-3.1,0-5.6-2.5-5.6-5.6V28c0-5,4-9,9-9h54c5,0,9,4,9,9v2.2c0,1.2-1,2.2-2.2,2.2s-2.2-1-2.2-2.2V28
			c0-2.5-2-4.5-4.5-4.5H23c-2.5,0-4.5,2-4.5,4.5v6.8c0,1.2,1,2.2,2.2,2.2h59.6C83.5,37,86,39.5,86,42.6z"/>
	</g>
</g>
</svg>
