<?xml version="1.0" encoding="utf-8"?>
<!-- Generator: Adobe Illustrator 24.0.3, SVG Export Plug-In . SVG Version: 6.00 Build 0)  -->
<svg version="1.1" id="Layer_1" xmlns="http://www.w3.org/2000/svg" xmlns:xlink="http://www.w3.org/1999/xlink" x="0px" y="0px"
	 viewBox="0 0 100 100" style="enable-background:new 0 0 100 100;" xml:space="preserve">
<style type="text/css">
	.st0{clip-path:url(#SVGID_2_);}
	.st1{fill:#FFFFFF;stroke:#FFFFFF;}
</style>
<g>
	<defs>
		<rect id="SVGID_1_" width="100" height="100"/>
	</defs>
	<clipPath id="SVGID_2_">
		<use xlink:href="#SVGID_1_"  style="overflow:visible;"/>
	</clipPath>
	<g id="a" class="st0">
		<g transform="translate(16.15 14)">
			<g transform="translate(0 0)">
				<path class="st1" d="M10.5,64.4c11.2,0,21-8.4,21-18c0-0.8,0.7-1.5,1.5-1.5s1.5,0.7,1.5,1.5c0,11.2-11.2,21-24,21
					c-0.8,0-1.5-0.7-1.5-1.5S9.7,64.4,10.5,64.4L10.5,64.4L10.5,64.4z"/>
				<path class="st1" d="M55.4,9.2c-0.3,0-0.5-0.1-0.8-0.2C41.8,1.3,25.9,1,12.7,8.1c-0.7,0.4-1.6,0.1-2-0.6c-0.4-0.7-0.1-1.6,0.6-2
					c14.1-7.6,31.2-7.3,44.9,0.9c0.7,0.4,0.9,1.4,0.5,2.1C56.4,8.9,55.9,9.2,55.4,9.2L55.4,9.2z"/>
				<path class="st1" d="M0.2,26.2C6,15.7,18.8,8.9,32.9,8.9s27,6.8,32.8,17.3c0.4,0.7,0.2,1.6-0.5,2.1c-0.7,0.4-1.6,0.2-2.1-0.5
					c0,0,0-0.1-0.1-0.1C57.8,18.1,46,11.9,32.9,11.9S8.1,18.1,2.8,27.6c-0.4,0.7-1.3,1-2,0.7c-0.7-0.4-1-1.3-0.7-2
					C0.1,26.2,0.2,26.2,0.2,26.2L0.2,26.2z"/>
				<path class="st1" d="M50.9,47.9c0-10.4-7.6-18-18-18c-10.9,0-18,6.5-18,16.5c0,0.8-0.7,1.5-1.5,1.5S12,47.2,12,46.4
					c0-11.7,8.4-19.5,21-19.5c11.3-0.2,20.7,8.7,21,20.1c0,0.3,0,0.6,0,0.9c0,8.8-3.1,16-10.1,23.5c-0.6,0.6-1.5,0.6-2.1,0
					c-0.5-0.6-0.6-1.4-0.1-2C48,62.5,50.9,55.8,50.9,47.9z"/>
				<path class="st1" d="M32.9,17.9c17.4,0,30,12,30,28.5c0,4.5-1.5,8.7-3.1,12.6c-0.3,0.8-1.1,1.2-1.9,0.9S56.7,58.7,57,58
					c0-0.1,0-0.1,0.1-0.1c1.5-3.6,2.9-7.5,2.9-11.4c0-15-11.1-25.5-27-25.5c-15.4,0-27,11.6-27,27c0,4.1,3.3,7.5,7.4,7.6
					s7.5-3.3,7.6-7.4c0-0.1,0-0.1,0-0.2c0-7.1,4.9-12,12-12s12,4.9,12,12c0,9.8-5.5,18-16,23.8c-0.7,0.4-1.6,0.1-2-0.6
					c-0.4-0.7-0.1-1.6,0.6-2c9.6-5.3,14.4-12.4,14.4-21.2c0-6.2-4.5-9-9-9s-9,2.8-9,9c0.1,5.8-4.6,10.5-10.4,10.6S3.1,53.9,3,48.1
					C3,48,3,48,3,47.9C3,30.8,15.9,17.9,32.9,17.9z"/>
			</g>
		</g>
	</g>
</g>
</svg>
