<?xml version="1.0" encoding="utf-8"?>
<!-- Generator: Adobe Illustrator 24.0.3, SVG Export Plug-In . SVG Version: 6.00 Build 0)  -->
<svg version="1.1" id="Layer_1" xmlns="http://www.w3.org/2000/svg" xmlns:xlink="http://www.w3.org/1999/xlink" x="0px" y="0px"
	 viewBox="0 0 100 100" style="enable-background:new 0 0 100 100;" xml:space="preserve">
<style type="text/css">
	.st0{clip-path:url(#SVGID_2_);}
	.st1{fill-rule:evenodd;clip-rule:evenodd;fill:#FFFFFF;}
</style>
<g>
	<defs>
		<rect id="SVGID_1_" width="100" height="100"/>
	</defs>
	<clipPath id="SVGID_2_">
		<use xlink:href="#SVGID_1_"  style="overflow:visible;"/>
	</clipPath>
	<g id="a" class="st0">
		<path class="st1" d="M28,41c-1.2,0-2.2-1-2.2-2.2s1-2.2,2.2-2.2s2.2,1,2.2,2.2C30.3,40,29.2,41,28,41C28,41,28,41,28,41z M28,32
			c-1.2,0-2.2-1-2.2-2.2c0-1.2,1-2.2,2.2-2.2c1.2,0,2.2,1,2.2,2.2C30.2,31,29.2,32,28,32C28,32,28,32,28,32z M73,41
			c-1.2,0-2.2-1-2.2-2.3s1-2.2,2.3-2.2c1.2,0,2.2,1,2.2,2.2C75.3,40,74.2,41,73,41C73,41,73,41,73,41z M73,32c-1.2,0-2.2-1-2.2-2.3
			c0-1.2,1-2.2,2.3-2.2c1.2,0,2.2,1,2.2,2.2C75.3,31,74.2,32,73,32C73,32,73,32,73,32z M50.5,27.5c1.2,0,2.2,1,2.2,2.2
			c0,1.2-1,2.2-2.2,2.2c-1.2,0-2.2-1-2.2-2.2C48.2,28.5,49.3,27.5,50.5,27.5C50.5,27.5,50.5,27.5,50.5,27.5z M50.5,36.5
			c1.2,0,2.2,1,2.2,2.2s-1,2.2-2.2,2.2c-1.2,0-2.2-1-2.2-2.2C48.2,37.5,49.3,36.5,50.5,36.5z M14.5,72.5v-45c0-5,4-9,9-9h6.8
			c1.2,0,2.2,1,2.2,2.2s-1,2.2-2.2,2.2h-6.8C21,23,19,25,19,27.5v45c0,2.5,2,4.5,4.5,4.5h9c2.5,0,4.5-2,4.5-4.5v-45
			c0-2.5,1.1-4.9,2.9-6.6c0,0,0,0,0,0c0.2-0.2,0.4-0.4,0.7-0.6c0,0,0.1,0,0.1-0.1c0.2-0.2,0.4-0.3,0.6-0.4c0.1,0,0.1-0.1,0.2-0.1
			c0.2-0.1,0.4-0.2,0.6-0.3c0.1,0,0.2-0.1,0.2-0.1c0.2-0.1,0.4-0.2,0.6-0.3c0.1,0,0.1-0.1,0.2-0.1c0.2-0.1,0.5-0.1,0.7-0.2
			c0.1,0,0.1,0,0.2-0.1c0.3-0.1,0.5-0.1,0.8-0.1c0,0,0.1,0,0.1,0c0.3,0,0.7-0.1,1-0.1h9c0.3,0,0.7,0,1,0.1c0,0,0.1,0,0.1,0
			c0.3,0,0.6,0.1,0.8,0.1c0.1,0,0.1,0,0.2,0.1c0.2,0.1,0.5,0.1,0.7,0.2C57.9,19,58,19,58,19c0.2,0.1,0.4,0.2,0.7,0.3
			c0.1,0,0.1,0.1,0.2,0.1c0.2,0.1,0.4,0.2,0.6,0.3c0.1,0,0.1,0.1,0.2,0.1c0.2,0.1,0.5,0.3,0.7,0.4c0,0,0,0,0,0
			c0.5,0.4,0.9,0.8,1.4,1.3c1.4,1.6,2.2,3.7,2.2,5.9v45c0,2.5,2,4.5,4.5,4.5h9c2.5,0,4.5-2,4.5-4.5v-45c0-2.5-2-4.5-4.5-4.5h-6.8
			c-1.2,0-2.2-1-2.2-2.2s1-2.2,2.2-2.2h6.8c5,0,9,4,9,9v45c0,5-4,9-9,9h-9c-5,0-9-4-9-9v-45c0-2.5-2-4.5-4.5-4.5h-9
			c-2.5,0-4.5,2-4.5,4.5v45c0,5-4,9-9,9h-9C18.5,81.5,14.5,77.5,14.5,72.5z M46,79.2c0-1.2,1-2.2,2.2-2.2h4.5c1.2,0,2.2,1.1,2.2,2.3
			c0,1.2-1,2.1-2.2,2.2h-4.5C47,81.5,46,80.5,46,79.2z"/>
	</g>
</g>
</svg>
