<?xml version="1.0" encoding="utf-8"?>
<!-- Generator: Adobe Illustrator 24.0.3, SVG Export Plug-In . SVG Version: 6.00 Build 0)  -->
<svg version="1.1" id="Layer_1" xmlns="http://www.w3.org/2000/svg" xmlns:xlink="http://www.w3.org/1999/xlink" x="0px" y="0px"
	 viewBox="0 0 100 100" style="enable-background:new 0 0 100 100;" xml:space="preserve">
<style type="text/css">
	.st0{clip-path:url(#SVGID_2_);}
	.st1{fill-rule:evenodd;clip-rule:evenodd;fill:#FFFFFF;}
</style>
<g>
	<defs>
		<rect id="SVGID_1_" width="100" height="100"/>
	</defs>
	<clipPath id="SVGID_2_">
		<use xlink:href="#SVGID_1_"  style="overflow:visible;"/>
	</clipPath>
	<g id="a" class="st0">
		<path class="st1" d="M82.1,70L56.6,80.4c-4.2,1.7-8.9,1.7-13.2,0L17.9,70c-2.4-1.2-3.9-3.7-3.9-6.4V31.2c0-1.3,1.1-2.4,2.4-2.4
			s2.4,1.1,2.4,2.4v32.1c0,0.8,0.4,1.6,1.2,2l24.5,10.4c0.1,0,0.1,0,0.2,0.1c3.4,1.4,7.3,1.4,10.7,0c0.1,0,0.1,0,0.2-0.1L80,65.3
			c0.7-0.4,1.2-1.2,1.2-2V40.8c0-1.3,1.1-2.4,2.4-2.4s2.4,1.1,2.4,2.4l0,0v22.8C86,66.3,84.5,68.8,82.1,70z M83.6,33.6
			c-1.3,0-2.4-1.1-2.4-2.4s1.1-2.4,2.4-2.4c1.3,0,2.4,1.1,2.4,2.4l0,0C86,32.5,84.9,33.6,83.6,33.6C83.6,33.6,83.6,33.6,83.6,33.6z
			 M72,63l-11.3,4.7l0,0c-0.3,0.1-0.7,0.2-1,0.2c-1.4,0-2.5-1.1-2.5-2.5c0-1,0.6-1.9,1.6-2.3l11.5-5c0.8-0.4,1.3-1.2,1.3-2.1V24.6
			c0-0.7-0.5-1.2-1.2-1.2l0,0c-0.2,0-0.3,0-0.5,0.1l0,0l-16.2,7.1c-0.8,0.4-1.3,1.2-1.3,2.1V66c0,2.7-2.1,4.8-4.8,4.8
			c-0.6,0-1.3-0.1-1.9-0.4L28,63c-2.7-1.1-4.4-3.7-4.4-6.6V22.8c0-2.7,2.1-4.8,4.8-4.8c0.6,0,1.3,0.1,1.8,0.4l11,4.6
			c1.3,0.5,1.9,2,1.3,3.3c-0.5,1.3-2,1.9-3.3,1.3c-0.1,0-0.1,0-0.2-0.1l-9-4l0,0c-0.6-0.3-1.3,0-1.6,0.6c-0.1,0.2-0.1,0.3-0.1,0.5
			v31.4c0,0.9,0.5,1.7,1.3,2.1l16.2,7.1l0,0c0.6,0.3,1.3,0,1.6-0.6c0.1-0.2,0.1-0.3,0.1-0.5V32.4c0-2.9,1.7-5.5,4.4-6.6l17.8-7.4
			c2.4-1,5.3,0.1,6.3,2.6c0.2,0.6,0.4,1.2,0.4,1.8v33.6C76.4,59.3,74.7,61.9,72,63L72,63z"/>
	</g>
</g>
</svg>
