<svg xmlns="http://www.w3.org/2000/svg" xmlns:xlink="http://www.w3.org/1999/xlink" width="100" height="100" viewBox="0 0 100 100"><defs><clipPath id="b"><rect width="100" height="100"/></clipPath></defs><g id="a" clip-path="url(#b)"><path d="M63,72H9a9,9,0,0,1-9-9V56.251c0-3.6,2.75-6.891,7.334-9.531A2.093,2.093,0,0,1,8.586,46.3a2.111,2.111,0,0,1,1.049,3.946l.005.009C6.4,52.035,4.5,54.109,4.5,56.251V63A4.5,4.5,0,0,0,9,67.5H63A4.5,4.5,0,0,0,67.5,63V56.251C67.5,50.039,53.4,45,36,45a17.911,17.911,0,0,1-10.979-3.758,18.157,18.157,0,0,1-5.036-6.054c-.064-.125-.122-.246-.18-.371-.218-.452-.42-.913-.6-1.382-.067-.168-.131-.342-.188-.513-.157-.441-.29-.9-.409-1.352-.049-.189-.1-.377-.148-.571-.107-.469-.188-.945-.258-1.428-.026-.186-.064-.366-.084-.552A17.751,17.751,0,0,1,18,27V13.5A13.5,13.5,0,0,1,31.5,0h9A13.5,13.5,0,0,1,54,13.5V27a17.767,17.767,0,0,1-2.223,8.545,2.242,2.242,0,1,1-4.118-1.715l-.026-.014a13.441,13.441,0,0,0,1.82-5.894A8.837,8.837,0,0,0,49.5,27V13.5a9,9,0,0,0-9-9h-9a9,9,0,0,0-9,9V27a8.875,8.875,0,0,0,.046.922,13.484,13.484,0,0,0,12.86,12.55A5.179,5.179,0,0,0,36,40.5a79.389,79.389,0,0,1,10.974.748c.892.124,1.764.264,2.626.418.022,0,.046.009.066.011.826.148,1.635.313,2.428.487l.276.062c1.577.354,3.088.756,4.521,1.2.069.024.142.041.209.064.7.221,1.379.456,2.039.7l.209.078q.934.348,1.815.725c.048.023.1.043.149.064.615.266,1.2.538,1.771.823.073.034.142.073.211.107.563.284,1.111.58,1.626.884.012.005.024.018.037.023.493.292.951.591,1.4.9.078.052.163.11.241.165.446.316.869.635,1.263.962.043.035.087.073.127.108.388.33.756.664,1.092,1.005.018.018.035.032.052.049a13.431,13.431,0,0,1,.893,1.028c.06.081.127.156.186.237a11.292,11.292,0,0,1,.7,1.049c.022.044.048.087.073.133a8.851,8.851,0,0,1,.489,1.04c.021.053.047.1.064.157a7.525,7.525,0,0,1,.32,1.127c.013.073.025.147.037.223A7,7,0,0,1,72,56.251V63a9,9,0,0,1-9,9ZM20.25,45A2.25,2.25,0,1,1,18,42.75,2.247,2.247,0,0,1,20.25,45Z" transform="translate(14 14)" fill="#216e93" fill-rule="evenodd"/></g></svg>