<svg xmlns="http://www.w3.org/2000/svg" xmlns:xlink="http://www.w3.org/1999/xlink" width="100" height="100" viewBox="0 0 100 100"><defs><clipPath id="b"><rect width="100" height="100"/></clipPath></defs><g id="a" clip-path="url(#b)"><path d="M68.074,84,42.553,94.363A17.926,17.926,0,0,1,29.4,94.344L3.94,84A7.187,7.187,0,0,1,0,77.6V45.2a2.4,2.4,0,0,1,4.8,0V77.265a2.379,2.379,0,0,0,1.162,2.028l24.5,10.369c.054.021.1.032.153.054a13.861,13.861,0,0,0,10.727.013c.054-.023.1-.035.155-.056L66.035,79.294A2.381,2.381,0,0,0,67.2,77.265V54.8a2.4,2.4,0,0,1,4.8,0V77.6A7.189,7.189,0,0,1,68.074,84ZM69.6,47.6A2.4,2.4,0,1,1,72,45.2a2.4,2.4,0,0,1-2.4,2.4ZM57.989,77.042l-11.32,4.717v0a2.438,2.438,0,0,1-1,.216,2.461,2.461,0,0,1-.872-4.765l11.531-5.046a2.387,2.387,0,0,0,1.275-2.1V38.641a1.2,1.2,0,0,0-1.2-1.2,1.224,1.224,0,0,0-.492.1v0l-16.23,7.1A2.373,2.373,0,0,0,38.4,46.739V80a4.8,4.8,0,0,1-6.672,4.422L14,77.034A7.2,7.2,0,0,1,9.6,70.4V36.8A4.8,4.8,0,0,1,14.4,32a4.748,4.748,0,0,1,1.843.371l11.014,4.588A2.508,2.508,0,1,1,25.133,41.5l-9.039-3.955s0,0,0,0a1.2,1.2,0,0,0-1.69,1.1V70.064a2.382,2.382,0,0,0,1.276,2.1l16.231,7.1s0,0,0,0a1.2,1.2,0,0,0,1.69-1.1V46.4A7.2,7.2,0,0,1,38,39.768l17.751-7.395A4.8,4.8,0,0,1,62.4,36.8V70.4a7.213,7.213,0,0,1-4.413,6.639Z" transform="translate(14 -14.002)" fill="#216e93" fill-rule="evenodd"/></g></svg>