<?xml version="1.0" encoding="utf-8"?>
<!-- Generator: Adobe Illustrator 24.0.3, SVG Export Plug-In . SVG Version: 6.00 Build 0)  -->
<svg version="1.1" id="Layer_1" xmlns="http://www.w3.org/2000/svg" xmlns:xlink="http://www.w3.org/1999/xlink" x="0px" y="0px"
	 viewBox="0 0 100 100" style="enable-background:new 0 0 100 100;" xml:space="preserve">
<style type="text/css">
	.st0{clip-path:url(#SVGID_2_);}
	.st1{fill-rule:evenodd;clip-rule:evenodd;fill:#FFFFFF;}
</style>
<g>
	<defs>
		<rect id="SVGID_1_" width="100" height="100"/>
	</defs>
	<clipPath id="SVGID_2_">
		<use xlink:href="#SVGID_1_"  style="overflow:visible;"/>
	</clipPath>
	<g id="a" class="st0">
		<path class="st1" d="M77,86H23c-5,0-9-4-9-9v-6.7c0-3.6,2.8-6.9,7.3-9.5c0.4-0.3,0.8-0.4,1.3-0.4c1.2,0,2.1,0.9,2.1,2.1
			c0,0.8-0.4,1.5-1.1,1.8l0,0c-3.2,1.8-5.1,3.9-5.1,6V77c0,2.5,2,4.5,4.5,4.5h54c2.5,0,4.5-2,4.5-4.5v-6.7C81.5,64,67.4,59,50,59
			c-4,0-7.8-1.3-11-3.8c-2.1-1.6-3.8-3.7-5-6.1c-0.1-0.1-0.1-0.2-0.2-0.4c-0.2-0.5-0.4-0.9-0.6-1.4c-0.1-0.2-0.1-0.3-0.2-0.5
			c-0.2-0.4-0.3-0.9-0.4-1.4c0-0.2-0.1-0.4-0.1-0.6c-0.1-0.5-0.2-0.9-0.3-1.4c0-0.2-0.1-0.4-0.1-0.6C32,42.3,32,41.7,32,41V27.5
			C32,20,38,14,45.5,14h9C62,14,68,20,68,27.5l0,0V41c0,3-0.8,5.9-2.2,8.5c-0.4,1.2-1.6,1.9-2.8,1.5c-1.2-0.4-1.9-1.6-1.5-2.8
			c0-0.1,0.1-0.3,0.2-0.4l0,0c1.1-1.8,1.7-3.8,1.8-5.9c0-0.3,0-0.6,0-0.9V27.5c0-5-4-9-9-9h-9c-5,0-9,4-9,9V41c0,0.3,0,0.6,0,0.9
			c0.5,6.8,6,12.2,12.9,12.5c0.2,0,0.4,0,0.6,0c3.7,0,7.3,0.2,11,0.7c0.9,0.1,1.8,0.3,2.6,0.4c0,0,0,0,0.1,0
			c0.8,0.1,1.6,0.3,2.4,0.5l0.3,0.1c1.6,0.4,3.1,0.8,4.5,1.2c0.1,0,0.1,0,0.2,0.1c0.7,0.2,1.4,0.5,2,0.7l0.2,0.1
			c0.6,0.2,1.2,0.5,1.8,0.7c0,0,0.1,0,0.1,0.1c0.6,0.3,1.2,0.5,1.8,0.8c0.1,0,0.1,0.1,0.2,0.1c0.6,0.3,1.1,0.6,1.6,0.9c0,0,0,0,0,0
			c0.5,0.3,1,0.6,1.4,0.9c0.1,0.1,0.2,0.1,0.2,0.2c0.4,0.3,0.9,0.6,1.3,1c0,0,0.1,0.1,0.1,0.1c0.4,0.3,0.8,0.7,1.1,1c0,0,0,0,0.1,0
			c0.3,0.3,0.6,0.7,0.9,1c0.1,0.1,0.1,0.2,0.2,0.2c0.3,0.3,0.5,0.7,0.7,1c0,0,0,0.1,0.1,0.1c0.2,0.3,0.3,0.7,0.5,1
			c0,0.1,0,0.1,0.1,0.2c0.1,0.4,0.2,0.7,0.3,1.1c0,0.1,0,0.1,0,0.2c0.1,0.4,0.1,0.8,0.1,1.2V77C86,82,82,86,77,86z M34.2,59
			c0,1.2-1,2.2-2.2,2.2s-2.2-1-2.2-2.2s1-2.2,2.2-2.2C33.2,56.7,34.2,57.8,34.2,59C34.2,59,34.2,59,34.2,59z"/>
	</g>
</g>
</svg>
