<?xml version="1.0" encoding="utf-8"?>
<!-- Generator: Adobe Illustrator 24.0.3, SVG Export Plug-In . SVG Version: 6.00 Build 0)  -->
<svg version="1.1" id="Layer_1" xmlns="http://www.w3.org/2000/svg" xmlns:xlink="http://www.w3.org/1999/xlink" x="0px" y="0px"
	 viewBox="0 0 100 100" style="enable-background:new 0 0 100 100;" xml:space="preserve">
<style type="text/css">
	.st0{clip-path:url(#SVGID_2_);}
	.st1{fill-rule:evenodd;clip-rule:evenodd;fill:#FFFFFF;}
</style>
<g>
	<defs>
		<rect id="SVGID_1_" width="100" height="100"/>
	</defs>
	<clipPath id="SVGID_2_">
		<use xlink:href="#SVGID_1_"  style="overflow:visible;"/>
	</clipPath>
	<g id="a" class="st0">
		<path class="st1" d="M83.5,62.7l-9.3,9.3c-1.5,1.5-3.6,2.4-5.7,2.5c-0.2,0-0.3,0-0.5,0c-2.5,0-4.5-2-4.5-4.5v-2.2
			c0-1.2-1-2.2-2.2-2.2h-18c-1.2,0-2.2-1-2.2-2.2s1-2.2,2.2-2.2h19.1c3.1,0,5.6,2.5,5.6,5.6c0,0,0,0,0,0v1.1c0,0.9,0.7,1.7,1.7,1.7
			c0.4,0,0.8-0.1,1.1-0.4c0.1-0.1,0.2-0.1,0.3-0.2l9.2-9.2c1.7-1.7,1.7-4.4,0-6.1l-9.2-9.2c-0.1-0.1-0.3-0.3-0.5-0.4
			c-0.3-0.2-0.6-0.3-0.9-0.3c-0.9,0-1.7,0.8-1.7,1.7v1.1c0,3.1-2.5,5.6-5.6,5.6l0,0H38.7c-1.2,0-2.2,1-2.2,2.2v2.2
			c0,2.5-2,4.5-4.5,4.5c-0.2,0-0.3,0-0.5,0c-2.2-0.1-4.2-1-5.7-2.5l-9.3-9.3c-3.4-3.4-3.4-8.9,0-12.3l9.3-9.3
			c1.5-1.5,3.6-2.4,5.7-2.5c0.2,0,0.3,0,0.5,0c2.5,0,4.5,2,4.5,4.5v2.2c0,1.2,1,2.2,2.2,2.2h6.8c1.2,0,2.2,1,2.2,2.2s-1,2.2-2.2,2.2
			h-7.9c-3.1,0-5.6-2.5-5.6-5.6v-1.1c0-0.9-0.7-1.7-1.7-1.7c-0.4,0-0.8,0.1-1.1,0.4c-0.1,0.1-0.2,0.1-0.3,0.2l-9.2,9.2
			c-1.7,1.7-1.7,4.4,0,6.1l9.2,9.2c0.1,0.1,0.3,0.3,0.5,0.4c0.3,0.2,0.6,0.3,0.9,0.3c0.9,0,1.7-0.8,1.7-1.7v-1.1
			c0-3.1,2.5-5.6,5.6-5.6c0,0,0,0,0,0h23.6c1.2,0,2.2-1,2.2-2.2V43c0-2.5,2-4.5,4.5-4.5c0.2,0,0.3,0,0.5,0c2.2,0.1,4.2,1,5.7,2.5
			l9.3,9.3C86.8,53.7,86.8,59.3,83.5,62.7L83.5,62.7z M54.5,38.5c-1.2,0-2.2-1-2.2-2.2s1-2.2,2.2-2.2s2.2,1,2.2,2.2
			S55.7,38.5,54.5,38.5z"/>
	</g>
</g>
</svg>
