<svg xmlns="http://www.w3.org/2000/svg" xmlns:xlink="http://www.w3.org/1999/xlink" width="100" height="100" viewBox="0 0 100 100"><defs><clipPath id="b"><rect width="100" height="100"/></clipPath></defs><g id="a" clip-path="url(#b)"><path d="M9,43.25a2.25,2.25,0,1,1,2.25,2.25A2.25,2.25,0,0,1,9,43.25Zm9,0a2.25,2.25,0,1,1,2.25,2.25A2.25,2.25,0,0,1,18,43.25Zm9,0a2.25,2.25,0,1,1,2.25,2.25A2.25,2.25,0,0,1,27,43.25ZM72,55.625V86a9,9,0,0,1-9,9H9a9,9,0,0,1-9-9V61.25a2.25,2.25,0,0,1,4.5,0V86A4.5,4.5,0,0,0,9,90.5H63A4.5,4.5,0,0,0,67.5,86V56.75a2.25,2.25,0,0,0-2.25-2.25H5.625A5.625,5.625,0,0,1,0,48.875V41a9,9,0,0,1,9-9H63a9,9,0,0,1,9,9v2.25a2.25,2.25,0,0,1-4.5,0V41A4.5,4.5,0,0,0,63,36.5H9A4.5,4.5,0,0,0,4.5,41v6.75A2.25,2.25,0,0,0,6.75,50H66.375A5.625,5.625,0,0,1,72,55.625Z" transform="translate(14 -13)" fill="#216e93" fill-rule="evenodd"/></g></svg>