<svg xmlns="http://www.w3.org/2000/svg" xmlns:xlink="http://www.w3.org/1999/xlink" width="182" height="100" viewBox="0 0 182 100">
  <defs>
    <clipPath id="clip-Artboard_27">
      <rect width="182" height="100"/>
    </clipPath>
  </defs>
  <g id="Artboard_27" data-name="Artboard – 27" clip-path="url(#clip-Artboard_27)">
    <text id="_4." data-name="4." transform="translate(50 29)" fill="#51514f" font-size="30" font-family="LibreFranklin-SemiBold, Libre Franklin" font-weight="600"><tspan x="-13.68" y="0">4.</tspan></text>
    <path id="Significon-Bullhorn" d="M70.327,70.39l-.011-.011a2.277,2.277,0,1,1-3.179-3.259,4.545,4.545,0,0,0,0-6.365A2.277,2.277,0,1,1,70.316,57.5l.011-.011a9.127,9.127,0,0,1,0,12.906ZM59.312,95.875a4.563,4.563,0,0,1-4.562-4.562v-.03s0,0,0,0c-1.6-3.8-5.972-7.127-12.083-9.549l.012-.031a2.418,2.418,0,0,1,.811-4.7,2.392,2.392,0,0,1,1.075.262c7.289,2.725,12.52,6.575,14.384,10.99.493,1.17.367-19.752.367-19.752V58.234s.126-19.781-.368-18.612c-3.651,8.653-20.162,15.184-39.978,15.184-.372,0-.692,0-.987.006H15.969a2.281,2.281,0,0,0-2.281,2.281,2.281,2.281,0,0,1-2.281,2.281H9.125a4.562,4.562,0,0,0,0,9.125h2.281a2.281,2.281,0,0,1,2.281,2.281,2.281,2.281,0,0,0,2.281,2.281H18.1c.264,0,.545.006.864.006.273,0,.54.013.812.016a7.972,7.972,0,0,1,7.083,4.894L33.784,95.3c1.132,2.835-.5,5.133-3.652,5.133H25.819A8.939,8.939,0,0,1,18.065,95.3l-4-10.006.011,0a2.233,2.233,0,1,1,4.161-1.618l4.028,9.917a3.81,3.81,0,0,0,3.208,2.281H27.09c1.26,0,1.867-1.021,1.354-2.281L22.884,79.906a3.81,3.81,0,0,0-3.208-2.281H14.828a5.7,5.7,0,0,1-5-2.973.483.483,0,0,0-.017-.058,6.323,6.323,0,0,1-.359-.809,1.141,1.141,0,0,0-1.008-.756,0,0,0,0,0,0,0,9.115,9.115,0,0,1,0-18.181,0,0,0,0,0,0,0,1.141,1.141,0,0,0,1.008-.756s0,0,0-.007a5.692,5.692,0,0,1,5.372-3.833h3.964c17.821,0,32.67-5.873,35.954-13.655l0,0v-.03a4.562,4.562,0,1,1,9.125,0v54.75A4.563,4.563,0,0,1,59.312,95.875ZM33.078,76.484a2.281,2.281,0,1,1,2.281,2.281A2.281,2.281,0,0,1,33.078,76.484Z" transform="translate(71.181 -15.719)" fill="#216e93" fill-rule="evenodd"/>
  </g>
</svg>
