<?xml version="1.0" encoding="utf-8"?>
<!-- Generator: Adobe Illustrator 24.0.3, SVG Export Plug-In . SVG Version: 6.00 Build 0)  -->
<svg version="1.1" id="Layer_1" xmlns="http://www.w3.org/2000/svg" xmlns:xlink="http://www.w3.org/1999/xlink" x="0px" y="0px"
	 viewBox="0 0 241 118" style="enable-background:new 0 0 241 118;" xml:space="preserve">
<style type="text/css">
	.st0{enable-background:new    ;}
	.st1{fill:#FFFFFF;}
	.st2{fill-rule:evenodd;clip-rule:evenodd;fill:#FFFFFF;}
</style>
<g>
	<g>
		<g id="Artboard_21">
			<g class="st0">
				<path class="st1" d="M14.2,43.1v2.5c0,0.1,0,0.2-0.1,0.3S13.9,46,13.7,46H2.3c-0.3,0-0.5-0.1-0.5-0.4v-2.5
					c0-0.3,0.2-0.4,0.5-0.4h3.4c0.2,0,0.3-0.1,0.3-0.2v-14c0-0.1,0-0.2-0.1-0.3c-0.1,0-0.1,0-0.3,0l-3.2,1c0,0-0.1,0-0.2,0
					c-0.3,0-0.4-0.2-0.4-0.5V27c0-0.2,0-0.3,0.1-0.4c0-0.1,0.2-0.1,0.3-0.2L7,24c0.2-0.1,0.4-0.2,0.6-0.2s0.4-0.1,0.6-0.1H10
					c0.3,0,0.4,0.2,0.4,0.5v18.2c0,0.2,0.1,0.3,0.3,0.3h3.1C14.1,42.7,14.2,42.8,14.2,43.1z"/>
				<path class="st1" d="M21.1,45.4c0,0.2-0.1,0.4-0.2,0.5S20.6,46,20.3,46h-3c-0.2,0-0.4,0-0.5-0.1s-0.1-0.2-0.1-0.4v-3.4
					c0-0.3,0.1-0.5,0.4-0.5h3.5c0.3,0,0.4,0.2,0.4,0.5v3.3H21.1z"/>
			</g>
			<g id="Group_2552" transform="translate(34.129 1)">
				<path id="Significon-Computer" class="st2" d="M101.3,61.5c0,2-1.6,3.6-3.6,3.6s-3.6-1.6-3.6-3.6s1.6-3.6,3.6-3.6l0,0
					C99.7,57.9,101.3,59.5,101.3,61.5z M101.3,94H83.2c-2,0-3.6-1.6-3.6-3.6s1.6-3.6,3.6-3.6l0,0h18.1c4,0,7.2-3.2,7.2-7.2l0,0V14.5
					c0-4-3.2-7.2-7.2-7.2l0,0H14.5c-4,0-7.2,3.2-7.2,7.2l0,0v39.8c0,2,1.6,3.6,3.6,3.6l0,0h72.3c2,0,3.6,1.6,3.6,3.6
					s-1.6,3.6-3.6,3.6l0,0H9c-4.3,0-8-3-8.9-7.2H0V14.5C0,6.5,6.5,0,14.5,0h86.8c8,0,14.5,6.5,14.5,14.5v65.1
					C115.7,87.6,109.3,94,101.3,94L101.3,94z M50.6,76c0-2,1.6-3.6,3.6-3.6s3.6,1.6,3.6,3.6s-1.6,3.6-3.6,3.6l0,0
					C52.3,79.6,50.6,78,50.6,76z M3.6,72.3c2,0,3.6,1.6,3.6,3.6v3.6c0,4,3.2,7.2,7.2,7.2H65c4,0,7.2,3.2,7.2,7.2l0,0
					c0,8,7.2,14.5,10.8,14.5c2,0,3.6,1.6,3.6,3.6s-1.6,3.6-3.6,3.6H32.6c-2,0-3.6-1.6-3.6-3.6s1.6-3.6,3.6-3.6l0,0
					c2.1,0,5.4-2.2,7.8-5.6c1.1-1.7,3.3-2.1,5-1.1c1,0.7,1.6,1.8,1.6,3c0,0.1,0,0.2,0,0.4c0,0.5-0.1,0.9-0.4,1.3
					c-0.1,0.1-0.2,0.3-0.2,0.4l0,0c-0.4,0.5-0.8,1-1.2,1.5h25.3c-0.1-0.1-0.1-0.1-0.2-0.2l0,0c-0.3-0.4-0.6-0.8-0.9-1.2
					c0,0,0,0,0-0.1c-1.2-1.8-2.2-3.8-3-5.8c-0.5-1.6-0.9-3.2-1.1-4.9c0,0,0,0,0,0.1C65,95,63.9,94,62.6,94H14.5
					C6.5,94,0,87.6,0,79.6V76C0,74,1.6,72.3,3.6,72.3z"/>
				<path id="Significon-Mobile" class="st2" d="M170.6,101.3c0,2-1.6,3.6-3.6,3.6s-3.6-1.6-3.6-3.6s1.6-3.6,3.6-3.6
					S170.6,99.3,170.6,101.3L170.6,101.3z M188.6,115.7h-43.4c-8,0-14.5-6.5-14.5-14.5l0,0v-47c0-2,1.6-3.6,3.6-3.6s3.6,1.6,3.6,3.6
					l0,0v47c0,4,3.2,7.2,7.2,7.2l0,0h43.4c4,0,7.2-3.2,7.2-7.2v-3.6c0-2-1.6-3.6-3.6-3.6l0,0h-43.4c-2,0-3.6-1.6-3.6-3.6
					s1.6-3.6,3.6-3.6h45.2c4.3,0,8,3,8.9,7.2h0.2v7.2C203.1,109.3,196.6,115.7,188.6,115.7z M138,39.8c0,2-1.6,3.6-3.6,3.6
					s-3.6-1.6-3.6-3.6s1.6-3.6,3.6-3.6l0,0C136.4,36.2,138,37.8,138,39.8z M199.5,79.6c-2,0-3.6-1.6-3.6-3.6l0,0V14.5
					c0-4-3.2-7.2-7.2-7.2h-43.4c-4,0-7.2,3.2-7.2,7.2l0,0v3.6c0,2,1.6,3.6,3.6,3.6H185c2,0,3.6,1.6,3.6,3.6s-1.6,3.6-3.6,3.6h-45.2
					c-5,0-9-4-9-9v-5.4c0-8,6.5-14.5,14.5-14.5l0,0h43.4c8,0,14.5,6.5,14.5,14.5V76C203.1,77.9,201.5,79.6,199.5,79.6L199.5,79.6z"
					/>
			</g>
		</g>
	</g>
</g>
</svg>
