<svg xmlns="http://www.w3.org/2000/svg" xmlns:xlink="http://www.w3.org/1999/xlink" width="100" height="100" viewBox="0 0 100 100"><defs><clipPath id="b"><rect width="100" height="100"/></clipPath></defs><g id="a" clip-path="url(#b)"><path d="M60.75,54.5h-9a2.249,2.249,0,0,1,0-4.5h9a2.249,2.249,0,1,1,0,4.5Zm0,9h-9a2.25,2.25,0,0,1,0-4.5h9a2.25,2.25,0,0,1,0,4.5ZM38.25,77h22.5a2.251,2.251,0,0,1,0,4.5H38.25a2.251,2.251,0,1,1,0-4.5Zm0-9h22.5a2.249,2.249,0,1,1,0,4.5H38.25a2.249,2.249,0,1,1,0-4.5ZM18,51.125A5.624,5.624,0,0,1,23.625,45.5h15.75A5.625,5.625,0,0,1,45,51.125V61.25a2.25,2.25,0,0,1-4.5,0v-9A2.249,2.249,0,0,0,38.25,50h-13.5a2.249,2.249,0,0,0-2.25,2.25v4.5A2.25,2.25,0,0,0,24.749,59h9a2.25,2.25,0,0,1,0,4.5H23.625A5.623,5.623,0,0,1,18,57.876V51.125ZM20.248,77h9a2.251,2.251,0,0,1,0,4.5h-9a2.251,2.251,0,0,1,0-4.5Zm0-9h9a2.249,2.249,0,1,1,0,4.5h-9a2.249,2.249,0,0,1,0-4.5ZM63,95H13.5A13.5,13.5,0,0,1,0,81.5V65.751a2.249,2.249,0,1,1,4.5,0V81.5a9,9,0,0,0,9,9H61.875A5.624,5.624,0,0,0,67.5,84.875V42.126A5.623,5.623,0,0,0,61.875,36.5H19.125A5.623,5.623,0,0,0,13.5,42.126V79.25a2.251,2.251,0,1,1-4.5,0V41a9,9,0,0,1,9-9H63a9,9,0,0,1,9,9V86a9,9,0,0,1-9,9ZM2.251,59A2.251,2.251,0,1,1,4.5,56.749,2.25,2.25,0,0,1,2.251,59Z" transform="translate(14 -13)" fill="#216e93" fill-rule="evenodd"/></g></svg>