<?xml version="1.0" encoding="utf-8"?>
<!-- Generator: Adobe Illustrator 24.0.3, SVG Export Plug-In . SVG Version: 6.00 Build 0)  -->
<svg version="1.1" id="Layer_1" xmlns="http://www.w3.org/2000/svg" xmlns:xlink="http://www.w3.org/1999/xlink" x="0px" y="0px"
	 viewBox="0 0 241 118" style="enable-background:new 0 0 241 118;" xml:space="preserve">
<style type="text/css">
	.st0{fill-rule:evenodd;clip-rule:evenodd;fill:#FFFFFF;}
	.st1{enable-background:new    ;}
	.st2{fill:#FFFFFF;}
</style>
<g>
	<g>
		<g>
			<g id="Artboard_23">
				<path id="Significon-Like" class="st0" d="M194.4,89.3c-0.8,15.4-13.5,27.4-28.9,27.4h-25.3c-2,0-3.6-1.6-3.7-3.6
					c0-2,1.6-3.6,3.6-3.7h0.1h25.3c12,0,21.7-9.7,21.7-21.7V62.5c0-6-4.9-10.8-10.8-10.9h-9.1c-6,0-10.8-4.9-10.9-10.8
					c0-1.2,0.2-2.3,0.6-3.5c0.9-2.4,1.3-4.9,1.3-7.4V15.5c0-4-3.2-7.2-7.2-7.2s-7.2,3.2-7.2,7.2l0,0v5.4c0,7-7.6,15.4-15.4,23.2
					c-2.5,2.4-5.2,4.6-8,6.7c-3.5,2.5-5.6,6.6-5.6,11v38.8c0,1-0.2,2.1-0.6,3c-0.1,0.4-0.3,0.8-0.5,1.1c0,0.1-0.1,0.2-0.2,0.3
					c-0.2,0.3-0.4,0.6-0.6,0.9c-0.1,0.1-0.1,0.2-0.2,0.2c-0.4,0.5-0.9,1-1.4,1.4c-0.2,0.1-0.3,0.3-0.5,0.4s-0.4,0.2-0.6,0.4
					c-0.3,0.2-0.5,0.3-0.8,0.4c-0.2,0.1-0.4,0.2-0.6,0.3c-0.3,0.1-0.6,0.2-1,0.3c-0.2,0-0.4,0.1-0.6,0.1c-0.5,0.1-1.1,0.2-1.7,0.2
					H93.2c-8,0-14.5-6.5-14.5-14.5l0,0V58.9c0-8,6.5-14.5,14.5-14.5h3.6c2,0,3.6,1.6,3.6,3.6s-1.6,3.6-3.6,3.6h-3.6
					c-4,0-7.2,3.2-7.2,7.2V95c0,4,3.2,7.2,7.2,7.2H104c2,0,3.6-1.6,3.6-3.6v-37c0-6.5,3-12.6,8.2-16.6c0.6-0.4,1.1-0.9,1.7-1.3
					c0.3-0.3,0.6-0.6,1-0.8c9.1-7.2,17.9-16.7,17.9-27.5c0-8,6.5-14.5,14.5-14.5s14.5,6.5,14.5,14.5v16.3c-0.1,3.1-0.6,6.1-1.6,9
					l0,0c-0.5,1.4,0.2,3,1.6,3.5c0.3,0.1,0.6,0.2,1,0.2H180c8,0,14.5,6.5,14.5,14.5v28.9C194.5,88.3,194.4,88.8,194.4,89.3
					L194.4,89.3z M125.7,102.3c2,0,3.6,1.6,3.6,3.6s-1.6,3.6-3.6,3.6s-3.6-1.6-3.6-3.6C122.1,103.9,123.7,102.3,125.7,102.3z"/>
				<g class="st1">
					<path class="st2" d="M45,26.8c0-0.1,0-0.2,0.1-0.3c0.9-1,1.9-1.7,3.3-2.3c1.3-0.5,2.7-0.8,4.2-0.8c1.6,0,3.1,0.2,4.3,0.7
						s2.2,1.2,2.8,2c0.6,0.9,1,1.9,1,3c0,1-0.3,2-1,2.8c-0.6,0.9-1.5,1.5-2.7,1.8c-0.2,0.1-0.3,0.2-0.3,0.3s0.1,0.2,0.3,0.2
						c1.3,0.4,2.3,1.1,3.1,2s1.2,2,1.2,3.3c0,2.1-0.8,3.7-2.3,4.9s-3.8,1.8-6.8,1.8c-1.7,0-3.2-0.3-4.6-0.9s-2.5-1.5-3.4-2.6
						c-0.1-0.1-0.1-0.2-0.1-0.3c0-0.2,0.1-0.3,0.3-0.4l2-1.4c0.2-0.1,0.3-0.2,0.4-0.2c0.1,0,0.2,0,0.2,0.2c0.9,0.9,1.8,1.6,2.6,2
						s1.8,0.6,3,0.6c1.4,0,2.5-0.3,3.3-0.9s1.2-1.4,1.2-2.4c0-1.1-0.5-2-1.4-2.7s-2-1-3.3-1h-2.6c-0.3,0-0.5-0.1-0.5-0.4v-2.4
						c0-0.2,0.2-0.3,0.5-0.4l2.1-0.1c1.3,0,2.4-0.4,3.3-1c0.9-0.6,1.3-1.4,1.3-2.4c0-0.8-0.4-1.5-1.1-2.1c-0.7-0.5-1.6-0.8-2.7-0.8
						c-0.9,0-1.8,0.2-2.6,0.5c-0.8,0.4-1.6,0.9-2.4,1.7c-0.1,0.1-0.3,0.2-0.3,0.2c-0.1,0-0.2-0.1-0.3-0.2l-1.8-1.7
						C45.1,27,45,26.9,45,26.8z"/>
					<path class="st2" d="M68.5,45.4c0,0.2-0.1,0.4-0.2,0.5C68.2,46,68,46,67.8,46h-3c-0.2,0-0.4,0-0.5-0.1s-0.1-0.2-0.1-0.4v-3.4
						c0-0.3,0.1-0.5,0.4-0.5h3.5c0.3,0,0.4,0.2,0.4,0.5C68.5,42.1,68.5,45.4,68.5,45.4z"/>
				</g>
			</g>
		</g>
	</g>
</g>
</svg>
