<?xml version="1.0" encoding="utf-8"?>
<!-- Generator: Adobe Illustrator 24.0.3, SVG Export Plug-In . SVG Version: 6.00 Build 0)  -->
<svg version="1.1" id="Layer_1" xmlns="http://www.w3.org/2000/svg" xmlns:xlink="http://www.w3.org/1999/xlink" x="0px" y="0px"
	 viewBox="0 0 241 118" style="enable-background:new 0 0 241 118;" xml:space="preserve">
<style type="text/css">
	.st0{enable-background:new    ;}
	.st1{fill:#FFFFFF;}
	.st2{fill-rule:evenodd;clip-rule:evenodd;fill:#FFFFFF;}
</style>
<g>
	<g>
		<g>
			<g id="Artboard_22">
				<g class="st0">
					<path class="st1" d="M36.8,36.5c1.3-1.1,2.2-2,2.9-2.7c0.6-0.7,1.1-1.3,1.4-1.9s0.4-1.2,0.4-1.8c0-1-0.4-1.8-1.1-2.4
						c-0.7-0.6-1.6-0.9-2.6-0.9c-1.8,0-3.4,1-4.6,3.1c-0.2,0-0.3,0.1-0.5,0.1c-0.1,0-0.3,0-0.4-0.1l-2.2-1.2
						c-0.2-0.1-0.3-0.3-0.3-0.5c0-0.1,0-0.3,0.1-0.4c1.9-2.9,4.6-4.4,8-4.4c1.5,0,2.8,0.3,4,0.8s2.1,1.3,2.7,2.3c0.7,1,1,2.2,1,3.5
						c0,1.2-0.3,2.4-1,3.5s-1.8,2.3-3.5,3.7L35.5,42c-0.1,0.1-0.2,0.2-0.2,0.2c0,0.1,0.1,0.1,0.3,0.1h9.8c0.2,0,0.3,0,0.4,0.1
						c0.1,0.1,0.1,0.2,0.1,0.3v2.8c0,0.3-0.2,0.5-0.5,0.5h-15c-0.2,0-0.4,0-0.5-0.1s-0.1-0.2-0.1-0.5v-1.9c0-0.2,0.1-0.4,0.2-0.6
						c0.1-0.2,0.5-0.5,1-0.9L36.8,36.5z"/>
					<path class="st1" d="M53.1,45.4c0,0.2-0.1,0.4-0.2,0.5C52.8,46,52.6,46,52.3,46h-3c-0.2,0-0.4,0-0.5-0.1s-0.1-0.2-0.1-0.4v-3.4
						c0-0.3,0.1-0.5,0.4-0.5h3.5c0.3,0,0.4,0.2,0.4,0.5L53.1,45.4L53.1,45.4z"/>
				</g>
				<g id="Group_2500" transform="translate(64.191 1)">
					<path id="Significon-Click" class="st2" d="M84.9,76c0,2-1.6,3.6-3.6,3.6S77.7,78,77.7,76s1.6-3.6,3.6-3.6l0,0
						C83.3,72.3,84.9,74,84.9,76z M133,64.3L133,64.3c-0.9,0.3-1.4,1.4-1.1,2.3c0.1,0.2,0.2,0.5,0.4,0.6l4.1,4.1l0,0
						c3.7,3.7,3.7,9.7,0,13.4c-0.8,0.8-1.8,1.5-2.9,2l-6.4,2.7c-1.2,0.6-1.8,2.1-1.3,3.4c0,0.1,0.1,0.2,0.1,0.3l2.1,5
						c2.7,6.5-0.4,13.9-6.9,16.5c-6.5,2.7-13.9-0.4-16.5-6.9l-1.9-4.6l0,0c-0.7-1.6-2.5-2.3-4.1-1.6l-6.1,2.6l0,0
						c-5.5,2.2-11.7-0.4-14-5.9c-0.5-1.3-0.8-2.7-0.8-4.1v-3.8c0-2,1.6-3.6,3.6-3.6s3.6,1.6,3.6,3.6l0,0V94c0,2,1.6,3.6,3.5,3.6
						c0.5,0,0.9-0.1,1.3-0.2l6-2.5c0.1,0,0.1,0,0.2-0.1c5.2-2.2,11.2,0.3,13.3,5.5l0,0l0,0l2,4.7c1.1,2.8,4.3,4.1,7.1,3
						c2.8-1.1,4.1-4.3,3-7.1l0,0l-2.1-5.1c-2.1-4.9,0.2-10.6,5.1-12.9l6.6-2.8l0,0c0.2-0.1,0.4-0.2,0.6-0.4c0.7-0.7,0.7-1.8,0-2.5
						l-8.5-8.5c-2.5-2.5-2.5-6.6,0.1-9c1.2-1.2,2.8-1.8,4.5-1.8h0.8c4,0,7.2-3.2,7.2-7.2l0,0V14.5c0-4-3.2-7.2-7.2-7.2l0,0H14.5
						c-4,0-7.2,3.2-7.2,7.2l0,0v36.2c0,4,3.2,7.2,7.2,7.2l0,0h59.6c2,0,3.6-1.6,3.6-3.6l0,0v-17c0-5.6,4.6-10.2,10.2-10.2
						c2.7,0,5.3,1.1,7.2,3c0,0,0,0,0.1,0l19.3,19.3c1.5,1.5,1.6,3.9,0.1,5.4s-3.9,1.6-5.4,0.1l-0.1-0.1L89.3,35.1l0,0
						c-1-1-2.6-1-3.6-0.1c-0.5,0.5-0.8,1.1-0.8,1.8V56c0,5-4,9-9,9H14.5C6.5,65.1,0,58.6,0,50.6V14.5C0,6.5,6.5,0,14.5,0h113.9
						c8,0,14.5,6.5,14.5,14.5v36.2C142.8,56.8,138.8,62.3,133,64.3z"/>
					<g id="Group_2499" transform="translate(20.754 11.397)">
						<path id="Path_1886" class="st1" d="M5.6,15.5h31c1.2,0,2.2-0.9,2.3-2.1c0-0.7-0.3-1.4-1-1.9L22.4,0.4c-0.8-0.6-1.8-0.6-2.6,0
							L4.3,11.5c-0.6,0.4-0.9,1.1-0.9,1.8C3.4,14.5,4.4,15.5,5.6,15.5L5.6,15.5z M21.1,5l8.6,6.1H12.5L21.1,5z"/>
						<path id="Path_1887" class="st1" d="M18.4,30.2l0.1-9.4L13,18.3v14.4L18.4,30.2z"/>
						<path id="Path_1888" class="st1" d="M23.8,30.2l-0.1-9.4l5.5-2.5v14.4L23.8,30.2z"/>
						<path id="Path_1889" class="st1" d="M41.1,37.3h-1.9v-1.9c0-0.6-0.5-1.2-1.2-1.2h-1.8V19.9c0-1.4-1.1-2.6-2.5-2.6
							s-2.6,1.1-2.6,2.5v0.1v14.4h-20V19.9c0-1.4-1.1-2.6-2.5-2.6S6,18.4,6,19.8v0.1v14.4H4.2c-0.6,0-1.2,0.5-1.2,1.2v1.9H1.2
							c-0.6,0-1.2,0.5-1.2,1.2l0,0v2h42.2v-2C42.2,37.8,41.7,37.3,41.1,37.3z"/>
					</g>
				</g>
			</g>
		</g>
	</g>
</g>
</svg>
