<svg xmlns="http://www.w3.org/2000/svg" xmlns:xlink="http://www.w3.org/1999/xlink" width="100" height="100" viewBox="0 0 100 100"><defs><clipPath id="b"><rect width="100" height="100"/></clipPath></defs><g id="a" clip-path="url(#b)"><path d="M33.751,58.5A2.25,2.25,0,1,1,31.5,60.75a2.251,2.251,0,0,1,2.251-2.25ZM31.5,42.75a2.251,2.251,0,0,1,4.5,0v9a2.251,2.251,0,1,1-4.5,0v-9ZM63,72H9a9,9,0,0,1-9-9V42.75a2.251,2.251,0,0,1,4.5,0V61.875A5.623,5.623,0,0,0,10.126,67.5H61.875A5.625,5.625,0,0,0,67.5,61.875V41.622A5.628,5.628,0,0,0,61.875,36H20.249A6.747,6.747,0,0,1,13.5,29.25V22.5a22.5,22.5,0,0,1,45,0v2.25a2.25,2.25,0,1,1-4.5,0V22.5a18,18,0,1,0-36,0v5.624A3.376,3.376,0,0,0,21.375,31.5H63a9,9,0,0,1,9,9V63a9,9,0,0,1-9,9ZM6.749,36A2.249,2.249,0,1,1,9,33.748,2.249,2.249,0,0,1,6.749,36Z" transform="translate(14 14)" fill="#216e93" fill-rule="evenodd"/></g></svg>