<svg xmlns="http://www.w3.org/2000/svg" xmlns:xlink="http://www.w3.org/1999/xlink" width="100" height="100" viewBox="0 0 100 100"><defs><clipPath id="b"><rect width="100" height="100"/></clipPath></defs><g id="a" clip-path="url(#b)"><path d="M63,72H47.249a2.25,2.25,0,1,1,0-4.5H61.874A5.625,5.625,0,0,0,67.5,61.875V47.25a2.25,2.25,0,1,1,4.5,0V63a9,9,0,0,1-9,9ZM2.249,22.5A2.249,2.249,0,1,1,0,24.751a2.249,2.249,0,0,1,2.25-2.25ZM71.915,32.673c-.031.242-.068.482-.119.716-.024.114-.057.222-.086.334-.05.2-.1.393-.165.584-.026.084-.059.167-.09.25-.081.22-.163.437-.261.647-.023.055-.052.108-.078.163-.11.229-.227.456-.355.672-.026.045-.053.089-.081.134-.138.224-.284.443-.442.656l-.067.09c-.17.222-.348.439-.537.644-.016.018-.033.037-.048.053a8.822,8.822,0,0,1-.648.633A8.962,8.962,0,0,1,63,40.5v.114a5.75,5.75,0,0,0-1.125-.114H46.124A5.624,5.624,0,0,0,40.5,46.125v15.75A5.667,5.667,0,0,0,40.615,63H40.5a8.957,8.957,0,0,1-2.25,5.939,8.822,8.822,0,0,1-.633.648c-.015.015-.035.031-.052.048-.205.189-.423.367-.645.536l-.09.068q-.32.234-.656.442c-.045.029-.088.055-.134.081-.217.127-.444.244-.673.354-.055.026-.108.055-.163.079-.21.1-.427.18-.647.261-.084.031-.167.064-.25.09-.191.064-.389.114-.584.165-.113.029-.22.062-.335.086-.233.05-.475.088-.716.119-.067.011-.129.022-.2.029A8.425,8.425,0,0,1,31.5,72H9a9,9,0,0,1-9-9V40.5a9,9,0,0,1,9-9H25.874A5.624,5.624,0,0,0,31.5,25.875V10.125A5.624,5.624,0,0,0,25.874,4.5H10.124A5.624,5.624,0,0,0,4.5,10.125V15.75a2.25,2.25,0,0,1-4.5,0V9A9,9,0,0,1,9,0H27a8.861,8.861,0,0,1,.971.052c.074.008.146.026.22.036.236.031.47.067.7.116.107.022.208.055.315.081.2.05.4.1.6.167.081.026.162.06.243.089.219.081.442.165.654.263.057.026.115.052.172.081.224.107.446.224.661.35l.136.084c.224.138.444.283.656.442l.091.067c.222.169.439.348.644.536.016.016.036.034.052.048A9.023,9.023,0,0,1,36,9h.115A5.6,5.6,0,0,0,36,10.125V27a9,9,0,0,1-9,9H10.124A5.625,5.625,0,0,0,4.5,41.625v20.25A5.624,5.624,0,0,0,10.124,67.5H30.375A5.624,5.624,0,0,0,36,61.875V45a9,9,0,0,1,9-9H61.874A5.624,5.624,0,0,0,67.5,30.376V10.125A5.624,5.624,0,0,0,61.874,4.5H42.75a2.25,2.25,0,1,1,0-4.5H63a9,9,0,0,1,9,9V31.5a8.676,8.676,0,0,1-.055.976c-.007.069-.018.132-.029.2Z" transform="translate(14.001 14)" fill="#216e93" fill-rule="evenodd"/></g></svg>