<svg xmlns="http://www.w3.org/2000/svg" xmlns:xlink="http://www.w3.org/1999/xlink" width="100" height="100" viewBox="0 0 100 100"><defs><clipPath id="b"><rect width="100" height="100"/></clipPath></defs><g id="a" clip-path="url(#b)"><path d="M58.5,27h-45A13.5,13.5,0,1,1,27,13.5v2.25a2.25,2.25,0,0,1-4.5,0V13.5a9,9,0,1,0-9,9h45a9,9,0,1,0-9-9v2.25a2.25,2.25,0,0,1-4.5,0V13.5A13.5,13.5,0,1,1,58.5,27Zm-45,18h2.25a2.25,2.25,0,0,1,0,4.5H13.5a9,9,0,1,0,9,9V33.75a2.25,2.25,0,0,1,4.5,0V58.5A13.5,13.5,0,1,1,13.5,45ZM45,38.25v-4.5a2.25,2.25,0,0,1,4.5,0v4.5a2.25,2.25,0,0,1-4.5,0ZM33.75,45H58.5A13.5,13.5,0,1,1,45,58.5V56.25a2.25,2.25,0,0,1,4.5,0V58.5a9,9,0,1,0,9-9H33.75a2.25,2.25,0,0,1,0-4.5Z" transform="translate(14 14)" fill="#216e93" fill-rule="evenodd"/></g></svg>